<?xml version="1.0" encoding="utf-8"?>
<!-- Generator: Adobe Illustrator 16.0.0, SVG Export Plug-In . SVG Version: 6.00 Build 0)  -->
<!DOCTYPE svg PUBLIC "-//W3C//DTD SVG 1.1//EN" "http://www.w3.org/Graphics/SVG/1.1/DTD/svg11.dtd">
<svg version="1.1" id="Layer_2" xmlns="http://www.w3.org/2000/svg" xmlns:xlink="http://www.w3.org/1999/xlink" x="0px" y="0px"
	 width="290px" height="290px" viewBox="0 0 290 290" enable-background="new 0 0 290 290" xml:space="preserve">
<g>
	<g>
		<g>
			<path fill="#F37A60" d="M143.128,127.662c-0.692,0-1.346-0.237-1.839-0.667c-0.436-0.383-1.02-1.401-0.731-2.51
				c0.299-1.148,1.37-1.309,1.773-1.37c0.05-0.009,0.132-0.014,0.236-0.014c0.278,0,1.677,0.047,1.886,0.975l0.016,0.073
				l-0.073,0.021c-1.328,0.362-1.997,1.646-1.969,1.802c1.002-0.955,1.827-1.421,2.379-1.421c0.044,0,0.086,0.002,0.125,0.008
				c0.353,0.076,0.604,0.621,0.577,1.241c-0.017,0.373-0.196,1.606-1.83,1.813C143.501,127.645,143.314,127.662,143.128,127.662z"/>
			<path fill="#F37A60" d="M150.716,132.664c-0.087,0-0.168-0.012-0.245-0.034l-0.051-0.015l-0.007-0.053
				c-0.183-1.616-1.166-3.426-1.581-4.129c-0.656-1.11-1.7-2.5-2.943-2.814l-0.058-0.015l-0.004-0.059
				c-0.029-0.505-0.222-0.997-0.561-1.422l-0.117-0.147l0.188,0.018c3.692,0.349,6.783,3.238,7.041,6.579
				c0.04,0.545-0.163,1.103-0.558,1.529C151.495,132.454,151.082,132.664,150.716,132.664z"/>
			<path fill="#F37A60" d="M142.269,130.514c-0.131-0.916-0.133-1.719-0.008-2.453l0.014-0.084l0.083,0.02
				c0.192,0.046,0.395,0.074,0.601,0.08l0.132,0.004l-0.065,0.115c-0.35,0.618-0.55,1.396-0.596,2.311L142.269,130.514z"/>
			<path fill="#F37A60" d="M136.799,135.41c-0.986,0-2.197-1.484-2.234-2.739c-0.033-1.133,0.379-2.553,1.077-3.705
				c0.963-1.585,2.467-2.697,3.922-3.771l0.538-0.398l0.006,0.151c0.021,0.528,0.183,1.142,0.436,1.639l-0.128,0.092
				c-2.694,0.834-3.646,4.23-3.776,6.107c-0.086,1.246,0.13,2.209,0.54,2.396l0.158,0.073l-0.158,0.073
				C137.062,135.382,136.934,135.41,136.799,135.41z"/>
		</g>
		<g>
			<path fill="#DCAEA6" d="M140.363,143.358c0.546-1.581,0.683-1.581,0.773-1.581h0.035l0.052,0.039
				c0.048,0.049,0.09,0.152,0.073,0.565c0.038,0.345-0.022,0.619-0.18,0.803c-0.145,0.17-0.372,0.265-0.674,0.279l-0.119,0.007
				L140.363,143.358z"/>
			<path fill="#DCAEA6" d="M148.498,139.112c-0.163,0-0.334-0.041-0.508-0.12l-0.38-0.241l0.147-0.057
				c0.593-0.232,1.044-0.344,1.382-0.344c0.075,0,0.142,0.005,0.204,0.016l0.1,0.018l-0.041,0.093
				C149.229,138.875,148.891,139.112,148.498,139.112z"/>
		</g>
		<g>
			<path fill="#F1E5E2" d="M125.338,269.596c-1.104-0.032-2.02-0.364-2.576-0.939c-0.903-2.143-1.181-4.358-0.846-6.608l0.021-0.144
				l0.11,0.096c0.014,0.002,0.028,0.003,0.041,0.003c0.067,0,0.115-0.03,0.148-0.07c0.032-0.04,0.046-0.085,0.039-0.123
				c-1.584-7.448-0.677-15.481,0.419-22.355c0.521-3.269,1.656-9.484,3.401-14.387c0.202-1.136-0.357-5.551-0.898-8.981
				c-0.193-1.223-0.373-2.443-0.553-3.668c-0.327-2.221-0.666-4.52-1.077-6.769c-0.076-0.406-0.183-0.914-0.314-1.491l-0.06-0.265
				l0.193,0.188c0.892,0.863,2.31,1.044,3.343,1.044c1.327,0,2.859-0.309,3.905-0.789l0.158-0.14l0.033,0.169
				c-0.134,1.077-0.253,2.152-0.372,3.21c-0.068,0.616-0.137,1.227-0.207,1.83c-0.573,4.946-1.338,13.369-1.162,14.02
				c0.473,1.746,0.122,3.374-0.436,4.213c-0.476,1.65-1.802,11.374-2.501,17.332c-0.331,2.818-0.619,5.057-0.951,7.644l-0.333,2.581
				c-0.311,2.381-0.664,5.076,0.003,8.015c0.001,0,0.002,0,0.004,0c0.029,0,0.064-0.017,0.082-0.039l0.063-0.078l0.062,0.079
				c0.571,0.737,1.193,1.476,1.793,2.188c0.579,0.691,1.162,1.382,1.714,2.089c-0.056,0.661-0.198,1.339-0.978,1.759
				c-0.499,0.268-1.126,0.393-1.978,0.393C125.533,269.601,125.435,269.6,125.338,269.596z"/>
			<path fill="#F1E5E2" d="M145.843,270.383c-0.498,0-1.016-0.08-1.501-0.233c-1.414-0.445-2.054-1.62-1.852-3.392
				c0.845-1.641,1.892-3.146,3.036-4.382c0.023-0.024,0.05-0.065,0.045-0.106c-0.004-0.031-0.024-0.059-0.056-0.075l-0.05-0.032
				l0.013-0.058c0.498-2.451-0.063-4.928-0.606-7.322l-0.07-0.306c-0.803-3.557-1.577-7.181-2.327-10.686l-0.431-2.028
				c-0.833-3.909-2.228-10.452-2.545-11.804l-0.075-0.14c-0.37-0.704-1.494-2.842-0.896-5.005c0.18-1.362-0.297-8.655-0.76-15.711
				l-0.292-4.487l0.144,0.122c0.778,0.657,2.049,1.049,3.399,1.049c1.572,0,2.913-0.508,3.586-1.359l0.141,0.07
				c-0.362,1.433-0.717,2.869-1.062,4.305c-0.71,2.964-1.759,10.866-1.32,16.072c1.745,4.288,4.161,12.879,4.782,17.002
				c0.501,3.323,0.895,6.78,1.206,10.573c0.081,0.98,0.079,2.005,0.077,2.994c-0.005,1.987-0.01,4.044,0.646,5.908l-0.131,0.084
				c-0.226,0-0.592,0.168-0.621,0.236c0.016,0.021,0.152,0.081,0.226,0.114c0.152,0.065,0.298,0.128,0.314,0.244
				c0.383,2.478,0.384,4.578,0.002,6.815C148.258,269.833,147.162,270.383,145.843,270.383z"/>
		</g>
		<g>
			<path fill="#DCAEA6" d="M139.382,184.711c-1.237-1.744-1.453-3.92-1.661-6.024c-0.047-0.47-0.093-0.938-0.149-1.393
				c-0.28-2.231-0.482-4.508-0.679-6.709l-0.163-1.808c-0.433-4.719-1.087-11.852-2.439-16.857c-0.18-1.299-0.233-2.217-0.283-3.104
				c-0.058-1.014-0.113-1.972-0.343-3.414c-0.498-3.129-1.358-6.214-2.191-9.197c-0.22-0.792-0.438-1.584-0.657-2.377
				c-0.601-2.185-1.223-4.445-1.897-6.644c-0.149-0.485-0.304-0.968-0.46-1.452c-0.373-1.158-0.759-2.356-1.041-3.559l0.074-0.322
				c0.051-0.208,0.103-0.413,0.168-0.577c0.391-0.961,0.885-1.899,1.362-2.807l0.097-0.182c0.163-0.312,0.331-0.646,0.505-0.993
				c0.797-1.586,1.701-3.386,2.974-4.547l0.219-0.2l-0.089,0.282c-0.323,1.034,0.063,2.499,1.178,4.477
				c1.53,2.717,4.612,5.323,6.589,6.181l0.105,0.045l-0.079,0.083c-0.118,0.123-0.421,0.574-0.416,1.168l0,0.062l-0.06,0.016
				c-2.663,0.713-5.321,4.41-5.832,7.116c-0.192,1.021,0.059,2.043,0.69,2.805c0.491,0.592,1.15,0.931,1.811,0.931
				c0.377,0,0.742-0.107,1.085-0.321c0.748-0.232,1.497-1.072,1.737-1.474c0.673-1.124,2.19-3.982,1.765-6.24l-0.036-0.19
				l0.159,0.108c0.229,0.157,0.475,0.277,0.73,0.357l0.085,0.026l-0.035,0.081c-0.707,1.647-0.127,3.647,0.385,5.409l0.188,0.654
				c0.45,1.609,0.913,3.272,0.973,5.105c0.004,0.13,0.086,3.204-1.126,4.457c-0.334,0.345-0.737,0.52-1.197,0.52
				c-0.162,0-0.334-0.021-0.51-0.065l-0.152-0.038l0.119-0.101c0.482-0.409,0.725-1.387,0.708-2.099
				c-0.016-0.746-0.308-1.157-0.82-1.157c-0.69,0-1.572,0.729-1.814,1.499c-0.117,0.373,0.045,0.768,0.202,1.033
				c0.325,0.551,0.917,1.038,1.378,1.131c0.228,0.046,0.443,0.071,0.642,0.071c1.047,0,1.671-0.653,2.284-1.633
				c1.245-1.988,0.407-6.587,0.37-6.78c-0.127-0.691-0.328-1.385-0.542-2.119c-0.565-1.94-1.15-3.948-0.231-5.82l0.02-0.044l0.048,0
				c0.082-0.002,0.137-0.003,0.194-0.008l0.089-0.009l-0.002,0.09c-0.008,0.745,0.181,1.434,0.38,2.164l0.121,0.447
				c0.253,0.963,0.328,1.981,0.402,2.966c0.056,0.753,0.115,1.532,0.251,2.276c0.387,2.099,0.871,4.058,2.532,4.959
				c0.303,0.165,0.607,0.247,0.908,0.247c0.695,0,1.348-0.456,1.747-1.222c0.453-0.875,0.441-1.875-0.031-2.549
				c-0.249-0.355-0.649-0.43-0.942-0.43c-0.692,0-1.435,0.41-1.69,0.932c-0.163,0.333-0.116,0.68,0.137,1.006
				c0.321,0.415,0.803,0.653,1.32,0.653c0.421,0,0.822-0.164,1.075-0.439l0.135,0.073c-0.048,0.202-0.115,0.387-0.209,0.588
				c-0.332,0.834-0.773,1.258-1.311,1.258c-1.11,0-2.244-1.85-2.487-2.344c-0.217-0.44-0.357-0.921-0.496-1.386l-0.054-0.186
				c-0.406-1.362-0.549-2.827-0.688-4.243c-0.053-0.534-0.104-1.063-0.17-1.585c-0.08-0.645-0.29-1.285-0.492-1.904
				c-0.138-0.423-0.281-0.86-0.384-1.299l-0.02-0.083l0.085-0.013c0.547-0.087,1.019-0.288,1.408-0.597
				c0.069-0.056,0.124-0.116,0.178-0.177l0.063-0.066l0.129,0.093c0.396,2.085,1.728,4.597,3.681,5.336
				c0.436,0.165,0.869,0.25,1.287,0.25c1.032,0,1.759-0.501,2.021-0.999c0.883-1.671-0.104-3.549-1.086-4.832
				c-1.385-1.808-3.847-3.07-6.125-3.141l-0.035,0l-0.06-0.069c-0.062-0.069-0.165-0.184-0.319-0.263l-0.122-0.062l0.113-0.076
				c3.521-2.368,4.971-8.226,6.029-12.504c0.131-0.528,0.256-1.032,0.379-1.5c1.622-0.707,2.988-1.292,4.227-1.847l0.07-0.032
				l0.035,0.069c0.974,1.997,1.215,4.176,1.449,6.285c0.063,0.58,0.129,1.161,0.207,1.743c0.058,0.429,0.121,0.854,0.182,1.277
				c0.214,1.477,0.438,3.004,0.477,4.551c0.037,1.469-0.512,3.989-0.807,5.344c-0.071,0.334-0.137,0.632-0.154,0.752l0.027,0.007
				l-0.037,0.087c-0.369,0.849-0.742,1.696-1.114,2.541l-0.27,0.61c-2.029,4.612-5.427,12.329-5.621,17.486
				c-2.386,6.58-1.37,17.933-0.937,22.778l0.008,0.09c0.051,0.574,0.131,1.2,0.216,1.855c0.453,3.548,1.021,7.966-2.137,10.5
				c-0.104,0.005-0.196,0.005-0.282,0.005c-0.08,0-0.155,0-0.229,0c-2.079,0-4.973,0.721-6.889,1.199l-0.053,0.015L139.382,184.711z
				"/>
			<path fill="#DCAEA6" d="M149.933,132.633c-0.5,0-1.454-0.404-1.675-0.586c-1.494-1.241-2.486-2.874-2.869-4.722
				c-0.013-0.065-0.03-0.092-0.034-0.097l-0.08-0.119c0.306-0.352,0.485-0.758,0.53-1.21l0.017-0.144l0.113,0.09
				c1.042,0.824,1.887,1.62,2.622,2.826c0.894,1.457,1.444,2.63,1.733,3.691C150.289,132.479,150.238,132.633,149.933,132.633z"/>
			<path fill="#DCAEA6" d="M137.532,135.097c-0.225,0-0.506-0.133-0.572-0.764c-0.268-2.57,1.05-6.273,3.441-7.69l0.145-0.05
				c0.08,0.167,0.266,0.556,0.487,0.69l0.065,0.039l-0.036,0.067c-0.151,1.865-0.471,3.312-1.054,4.72
				c-0.184,0.442-0.4,0.897-0.663,1.391C139.049,134.058,138.164,135.097,137.532,135.097z"/>
			<path fill="#DCAEA6" d="M132.672,185.17c-3.77,0-7.557-1.099-11.254-3.265c-4.447-2.604-6.998-6.566-9.698-10.763l-0.333-0.517
				l0.055-0.045c0.545-0.443,1.107-0.874,1.669-1.304c1.158-0.888,2.354-1.805,3.359-2.818c2.955-2.983,5.483-6.782,7.517-11.291
				c2.815-6.243,3.877-13.404,2.99-20.164l0.156-0.032c0.363,1.256,0.716,2.547,1.081,3.946c0.302,1.155,0.603,2.197,0.887,3.183
				c0.916,3.175,1.64,5.685,1.721,9.472c-0.906,2.828,1.17,14.501,2.69,21.202c0.904,3.988,1.565,7.291,2.077,10.394
				c0.09,0.548,0.192,1.098,0.313,1.64l0.019,0.081l-0.083,0.014C134.797,185.08,133.73,185.17,132.672,185.17z"/>
			<path fill="#DCAEA6" d="M152.845,180.083c0.621-3.47,0.758-7.137,0.837-10.301l0.157-0.018c0.496,1.901,1.444,3.848,2.816,5.784
				l0.029,0.043l-0.026,0.045c-0.562,0.882-3.184,4.432-3.72,4.541l-0.114,0.021L152.845,180.083z"/>
		</g>
		<g>
			<path fill="#EFE0DD" d="M88.331,69.954c0.426-0.608,0.97-0.984,1.618-1.118l0.064,0.141c-0.545,0.426-1.011,0.753-1.464,1.029
				L88.331,69.954z"/>
			<path fill="#EFE0DD" d="M144.257,123.309c-0.573-0.308-1.228-0.478-1.843-0.478c-0.509,0-0.976,0.118-1.352,0.341
				c-2.188-0.903-3.838-2.243-5.59-4.475c-1.477-1.883-3.072-4.312-2.284-6.398c0.073-0.138,0.117-0.218,0.3-0.409l0.038-0.039
				l0.052,0.021c0.521,0.224,0.853,0.382,1.015,0.482c1.769,0.792,3.475,1.18,5.203,1.18c2.79,0,5.645-1.008,8.726-3.082l2.504-1.03
				l-0.076,0.179c-0.584,1.364-1.072,2.758-1.546,4.108c-1.225,3.498-2.383,6.801-5.05,9.585l-0.042,0.043L144.257,123.309z"/>
			<path fill="#EFE0DD" d="M127.112,204.745c-0.159,0-0.317-0.003-0.477-0.01c-1.037-0.041-1.859-0.403-2.729-0.787
				c-0.24-0.105-0.485-0.213-0.737-0.315c-0.692-2.782-1.78-6.823-2.655-10.068c-0.551-2.048-1.031-3.828-1.292-4.873l-0.048-0.196
				l0.17,0.109c1.171,0.763,9.071,4.615,13.613,5.626l0.089,0.021l-0.033,0.086c-1.209,3.187-1.762,6.678-2.142,9.67l-0.022,0.17
				l-0.116-0.125c-0.021-0.021-0.047-0.032-0.079-0.032c-0.029,0-0.062,0.009-0.098,0.025
				C129.53,204.517,128.403,204.745,127.112,204.745z"/>
			<path fill="#EFE0DD" d="M140.681,205.362c-1.125,0-2.197-0.32-3.185-0.949c-0.236-3.192-0.473-7.097-0.537-9.503l-0.002-0.087
				l0.087,0.006c0.366,0.021,0.731,0.031,1.094,0.031c2.979,0,6.047-0.69,9.659-2.175l0.152-0.063l-0.047,0.158
				c-1.059,3.687-2.094,7.518-3.073,11.387l-0.035,0.139l-0.1-0.104h-0.081C143.254,204.972,141.931,205.362,140.681,205.362z"/>
			<path fill="#EFE0DD" d="M134.518,192.115c-0.383,0-0.632-0.093-0.761-0.285c-0.144-0.215-0.125-0.533,0.057-0.974
				c0.583-1.41,1.96-2.278,3.094-2.877l0.071-0.039l0.037,0.073c0.257,0.493,1.027,1.421,1.287,1.634l0.001-0.016l0.104,0.044
				c0.997,0.423,2.143,0.627,3.503,0.627c1.338,0,2.744-0.195,4.103-0.384c1.064-0.149,2.163-0.302,3.216-0.358l0.218-0.013
				l-0.159,0.15c-1.874,1.779-5.645,1.854-8.398,1.912c-0.579,0.012-1.119,0.022-1.593,0.048c-0.279,0.016-0.517,0.02-0.726,0.02
				c-0.236,0-0.436-0.006-0.619-0.012c-0.154-0.004-0.295-0.009-0.436-0.009c-0.359,0-0.714,0.028-1.276,0.161l-0.083,0.021
				C135.614,191.968,134.999,192.115,134.518,192.115z"/>
			<path fill="#EFE0DD" d="M141.306,189.669c-1.021,0-1.947-0.086-2.833-0.264c-2.2-3.18-2.859-7.309-3.497-11.303
				c-0.249-1.562-0.484-3.035-0.803-4.438c-1.499-6.591-3.51-19.479-3.166-21.164c0.349-1.273-0.396-5.636-1.208-9.295
				c-1.05-4.738-2.331-9.29-3.804-13.529c-1.266-3.641-2.688-6.582-4.477-9.256c-0.324-0.485-0.657-0.964-0.991-1.448
				c-1.782-2.573-3.624-5.234-4.073-8.416l-0.015-0.108l0.107,0.019c1.717,0.292,3.342,0.931,4.967,1.955
				c2.833,1.786,3.935,4.481,5.101,7.336l0.175,0.429c0.056,0.138,0.161,0.674,0.306,1.417c0.192,0.981,0.455,2.324,0.698,3.169
				c0.472,1.647,0.932,3.296,1.393,4.945c0.309,1.109,1.041,3.712,1.041,3.712c0.909,3.212,1.848,6.533,2.578,9.854
				c0.407,1.849,0.63,3.729,0.828,5.388c0.178,1.5,0.333,2.794,0.575,3.623c0.813,4.56,1.569,10.784,2.314,19.039
				c0.295,3.269,0.595,5.975,0.942,8.516c0.278,2.032,0.67,3.595,1.762,5.098l0.021,0.014c0.024,0.057,0.004,0.077-0.153,0.24
				c-0.064,0.069-0.191,0.198-0.264,0.29c0.023-0.011,0.054-0.021,0.092-0.041c1.957-0.71,4.876-1.489,7.226-1.554l0.252-0.004
				c1.512,0,2.704,0.356,3.417,0.567c0.134,0.041,0.248,0.075,0.344,0.101c0.104,0.027,0.236,0.06,0.391,0.094
				c0.314,0.073,0.712,0.166,1.101,0.288c2.512,0.654,4.957,1.526,5.821,3.467c0.103,0.229,0.101,0.432-0.007,0.597
				c-0.225,0.346-0.9,0.514-2.067,0.514c-0.227,0-0.462-0.006-0.704-0.017c-1.312-0.025-2.841-0.25-3.756-0.385
				c-0.36-0.054-0.618-0.091-0.713-0.096c-0.167-0.003-0.336-0.006-0.501-0.006c-1.431,0-2.856,0.167-4.236,0.327
				C144.125,189.503,142.711,189.669,141.306,189.669z"/>
			<path fill="#EFE0DD" d="M151.253,184.319c-0.954-0.268-2.671-0.557-3.864-0.711l-0.255-0.036l0.229-0.117
				c3.026-1.554,2.292-7.887,1.755-12.511c-0.126-1.082-0.244-2.106-0.294-2.915c-0.238-3.915-0.41-16.369,1.179-19.708
				c0.023-2.556,1.491-7.601,2.845-10.69c0.55-1.258,1.111-2.51,1.671-3.763c0.915-2.04,1.858-4.15,2.741-6.247
				c0.616-1.469,1.07-3.987,1.55-6.654c0.478-2.657,0.973-5.404,1.65-7.073c1.478-2.074,3.56-3.721,6.199-4.91l0.107-0.049
				l0.006,0.118c0.113,2.556-1.176,5.177-2.316,7.492c-0.164,0.333-0.326,0.662-0.479,0.981l-0.669,1.391
				c-1.197,2.488-2.437,5.06-3.529,7.674l-0.854,2.028c-3.013,7.13-5.858,13.867-6.314,21.721c0,0.007,0.006,0.125,0.019,0.331
				c0.397,7.25,0.616,12.927,0.616,15.981c-0.002,5.588-0.603,11.182-1.892,17.605l-0.017,0.085L151.253,184.319z"/>
		</g>
		<g>
			<path fill="#F1D8C3" d="M127.197,121.073c-0.042-0.238-0.078-0.72-0.094-0.924l-0.007-0.088
				c-0.592-5.378-6.133-10.096-11.857-10.096c-0.958,0-1.889,0.135-2.77,0.402l-0.072,0.024l-0.031-0.067
				c-0.16-0.391-0.284-0.696-0.046-1.236c0.354-0.805,1.083-1.449,1.8-2.041c0.911-0.753,2.285-1.727,3.659-2.089
				c0.723,0.37,1.391,0.728,2.063,1.074c2.869,1.479,7.252,3.229,10.454,4.507c1.208,0.483,2.265,0.904,3.04,1.231l0.119,0.05
				l-0.17,0.141c-1.728,0.892-5.321,6.128-5.931,9.114L127.197,121.073z"/>
			<path fill="#F1D8C3" d="M131.077,276.751c-1.765,0-5.405-3.744-5.442-3.783c-1.071-1.104-1.94-2.335-2.581-3.653l-0.107-0.22
				l0.217,0.115c0.727,0.386,1.697,0.591,2.335,0.622c0.065,0.004,0.132,0.006,0.199,0.006c1.247,0,2.75-0.608,3.208-1.772
				l0.052-0.133l0.086,0.115c1.288,1.727,2.787,4.096,2.965,7.126c0.037,0.628-0.064,1.076-0.302,1.33
				C131.552,276.667,131.34,276.751,131.077,276.751z"/>
			<path fill="#F1D8C3" d="M142.805,276.843c-0.63,0-1.132-0.246-1.492-0.729c-1.071-1.44-0.594-4.706-0.213-5.974
				c0.245-0.813,0.571-1.664,0.971-2.532l0.152,0.039c-0.101,1.243,0.786,2.401,2.206,2.886c0.361,0.12,0.8,0.187,1.268,0.187
				c1.092,0,2.143-0.335,2.813-0.894l0.19-0.16l-0.062,0.241c-0.784,3.041-2.723,6.678-5.605,6.927
				C142.953,276.84,142.878,276.843,142.805,276.843z"/>
			<path fill="#F1D8C3" d="M137.531,194.209c-6.375-0.08-12.472-3.105-17.071-5.732c-2.188-1.25-13.154-7.815-14.111-14.467
				l-0.009-0.063l0.06-0.022c1.952-0.751,2.966-1.602,4.371-2.78l0.456-0.381l0.04,0.106c2.995,8.031,12.627,14.818,21.033,14.818
				c1.19,0,2.352-0.132,3.453-0.392c0.038-0.008,0.083-0.037,0.125-0.082l0.101-0.104l0.035,0.141
				c0.24,0.969,0.535,1.806,0.903,2.555l0.051,0.108l-0.119,0.007c-1.025,0.064-2.825,1.726-3.75,3.168
				c-0.171,0.268-0.194,0.53-0.068,0.761c0.187,0.343,0.684,0.555,1.295,0.555c0.388,0,0.804-0.079,1.236-0.236
				c0.859-0.314,1.785-0.358,2.657-0.358c0.355,0,0.728,0.009,1.121,0.019c0.439,0.009,0.905,0.019,1.401,0.019
				c0.817,0,2.078-0.023,3.595-0.232l0.321-0.044c1.796-0.242,4.032-0.542,5.158-2.004l0.202-0.031c0.893,0,2.121,0.144,2.875,0.285
				l0.231,0.043l-0.209,0.107c-5.63,2.854-10.569,4.241-15.1,4.241L137.531,194.209z"/>
			<path fill="#F1D8C3" d="M156.307,186.19c-0.462-0.285-2.897-1.198-3.854-1.51c-0.211-0.068-0.42-0.132-0.631-0.196l-0.078-0.024
				l0.026-0.077c0.358-1.077,0.658-2.207,0.911-3.454c0.471-0.384,0.855-0.921,1.229-1.439c0.178-0.248,0.35-0.486,0.519-0.688
				c0.764-0.917,1.933-2.52,2.246-3.048l0.064-0.108l0.07,0.105c0.22,0.326,2.265,2.803,3.592,3.993l0.057,0.051l-0.048,0.061
				c-1.018,1.24-1.714,2.528-2.328,3.666c-0.54,0.997-1.05,1.94-1.674,2.653l-0.045,0.049L156.307,186.19z"/>
			<path fill="#F1D8C3" d="M158.192,121.187c-0.057-0.967-0.452-4.648-0.595-5.678c-0.073-0.54-0.133-1.086-0.191-1.634
				c-0.234-2.196-0.479-4.468-1.775-6.33l-0.055-0.08l0.088-0.039c3.215-1.452,5.772-2.798,8.043-4.234
				c0.71-0.448,1.461-0.957,2.3-1.553c3.147,0.508,7.333,1.614,8.039,5.162l0.077,0.119l-0.115,0.055
				c-4.839,0.167-11.299,2.563-14.282,6.827c-0.063,0.227-0.149,0.491-0.243,0.779c-0.465,1.413-1.1,3.347-1.131,6.602
				L158.192,121.187z"/>
		</g>
		<path fill="#EFE0DD" d="M189.949,72.209c-0.835-0.967-1.938-1.458-3.28-1.458c-0.167,0-0.339,0.008-0.538,0.024
			c-0.07,0-0.073-0.03-0.075-0.048c-0.009-0.084,0.09-0.247,0.216-0.274l0.057-0.012l0.008-0.058
			c0.092-0.855,0.155-1.722,0.148-2.647c-0.004-0.002-0.007-0.005-0.012-0.008l0.061-0.653c0.024-1.633-0.048-3.324-0.217-5.031
			l-0.007-0.055l-0.014-0.004l-0.043-0.51l-0.014-0.124c-0.286-2.538-0.776-5.188-1.457-7.876l-0.015-0.057l-0.015-0.001
			l-0.21-0.858c-1.458-5.43-3.297-9.699-4.587-12.325l-0.336-0.675c-1.539-3.031-3.122-5.416-4.347-6.543
			c-9.691-8.923-22.039-14.452-34.765-15.566c-1.602-0.141-3.235-0.212-4.854-0.212c-13.46,0-25.691,4.727-33.557,12.969
			c-6.154,6.447-9.476,14.909-10.156,25.871c0,0-0.044,0.808-0.051,0.815c-0.153,3.108-0.093,6.472,0.18,10.001
			c0,0,0.167,2.112,0.109,2.344c-0.089-0.033-0.193-0.075-0.307-0.119c-0.339-0.133-0.722-0.284-1.014-0.294
			c-0.929,0.796-1.916,1.437-2.975,1.944c-0.875,2.065-0.723,5.351-0.228,6.797c0.75,2.192,1.888,4.161,3.384,5.854
			c2.248,2.542,4.904,4.667,8.359,6.69l0.103-0.117c-2.441-3.173-4.194-6.439-5.252-9.758c-1.699-0.719-3.093-3.954-2.76-5.603
			c0.135-0.661,0.521-0.996,1.147-0.996c0.152,0,0.319,0.021,0.497,0.06l0.099,0.022c0,0-0.007-0.47-0.009-0.613
			c0.537,6.352,3.077,12.332,7.551,17.776l0.129,0.081l-0.022,0.045l0.033,0.039c2.271,2.735,5.017,5.317,8.157,7.674
			c3.618,2.912,8.687,5.997,12.611,7.676c4.871,2.317,8.882,4.02,13.845,5.878c1.243,0.485,2.55,0.732,3.88,0.732
			c3.199-0.001,5.986-1.362,8.225-2.456c0.649-0.318,1.262-0.616,1.794-0.833c5.054-2.06,10.282-4.191,14.995-7.285
			c0.375-0.246,0.845-0.556,1.422-0.979c4.383-3.095,8.025-6.757,10.828-10.88c1.286-1.892,2.491-3.884,3.655-5.811
			c1.435-2.378,2.918-4.831,4.543-7.107l0.192-0.109c0.1-0.057,0.252-0.087,0.439-0.087c0.159,0,0.303,0.022,0.383,0.042
			c0.729,0.185,0.839,0.836,0.701,1.384c-0.249,0.984-0.881,1.755-1.985,2.425c-0.582,0.353-1.181,0.672-1.78,0.948
			c-0.078,0.036-0.156,0.077-0.237,0.117c-0.209,0.109-0.428,0.221-0.706,0.285c-1.71,2.934-3.554,6.037-5.63,8.884
			c-0.115,0.158-0.234,0.312-0.35,0.465l-0.356,0.464l0.281-0.123c5.309-2.313,9.289-4.911,11.833-7.722
			c1.515-1.677,3.304-3.93,3.68-6.49C191.595,76.351,191.37,73.853,189.949,72.209z"/>
		<path fill="#BEAA9B" d="M182.337,81.869c0.841-1.441,1.677-2.879,2.534-4.299c0.098-0.05,0.158-0.057,0.232-0.057
			c0.318,0,0.79,0.121,0.903,0.17c0.27,0.119,0.428,0.315,0.475,0.585c0.122,0.706-0.586,1.73-0.974,2.097
			c-0.652,0.619-1.479,1.028-2.278,1.426c-0.145,0.071-0.274,0.126-0.407,0.182c-0.169,0.071-0.346,0.145-0.508,0.232l-0.249,0.132
			L182.337,81.869z"/>
		<path fill="#BEAA9B" d="M93.946,79.625c-0.655-0.632-1.229-1.413-1.706-2.321c-0.353-0.668-0.583-1.33-0.686-1.963
			c-0.073-0.458-0.004-0.828,0.206-1.099c0.252-0.325,0.706-0.515,1.384-0.578l0.086-0.008l0.001,0.086
			c0.032,1.937,0.317,3.89,0.846,5.804l0.078,0.282L93.946,79.625z"/>
		<g>
			<path fill="#BEAA9B" d="M186.629,70.68c-0.907-0.07-3.195-1.289-5.229-3.683c-1.614-1.896-3.459-5.018-3.129-9.135
				c-7.297-4.012-9.09-8.409-10.986-13.062l-0.189-0.462l0.135-0.085c1.395,1.51,5.638,6.107,7.964,7.099
				c0.151,0.18,0.692,0.389,0.943,0.482l0.055-0.097c0,0,0.268,0.101,0.315,0.115c2.434,0.794,5.423,1.341,8.207,1.502l0.057,0.003
				l0.063,0.06c0.487,1.925,2.197,10.342,1.882,17.187l-0.004,0.082L186.629,70.68z"/>
			<path fill="#BEAA9B" d="M184.461,52.727c-5.056-0.142-9.288-1.433-12.582-3.838c-1.29-0.943-2.456-2.089-3.562-3.504
				c-0.737-1.424-1.465-2.941-2.234-4.548c-1.601-3.338-3.414-7.123-5.558-10.519l0.127-0.097c0.68,0.727,1.321,1.494,1.911,2.278
				c2.441,3.255,4.799,6.062,8.935,7.433c1.373,0.456,2.86,0.686,4.416,0.686c1.311,0,2.635-0.162,3.937-0.483l0.063-0.016
				l0.077,0.046c1.312,2.675,3.155,6.949,4.612,12.381l0.052,0.185L184.461,52.727z"/>
			<path fill="#BEAA9B" d="M92.007,66.901c-0.273-3.527-0.333-6.894-0.18-10.009c2.964-3.562,4.883-8.008,6.739-12.31
				c0.513-1.188,0.999-2.311,1.499-3.402c1.895-4.125,4.772-8.266,8.337-11.551c-0.79,0.697-1.52,1.398-2.185,2.077
				c-3.772,3.851-5.856,8.403-8.063,13.222c-0.428,0.937-0.861,1.879-1.308,2.821l-0.124,0.262
				c-1.173,2.479-2.633,5.563-4.587,8.162l-0.289,0.382l0.031-0.479c0.682-10.977,4.009-19.452,10.174-25.91
				c7.878-8.254,20.125-12.988,33.602-12.988c1.622,0,3.257,0.071,4.861,0.212c12.741,1.115,25.101,6.649,34.802,15.583
				c1.229,1.131,2.819,3.523,4.361,6.561l0.081,0.161l-0.176,0.044c-1.122,0.275-2.241,0.416-3.326,0.416
				c-4.781,0-9.231-2.702-13.228-8.03c-1.744-2.329-3.596-4.195-5.658-5.707c-2.068-1.883-4.553-3.095-7.391-3.61l-0.207-0.062
				c-1.818-0.517-3.68-0.778-5.532-0.778c-3.329,0-6.334,0.844-8.752,2.451c2.65-1.399,5.472-2.107,8.4-2.107
				c0.485,0,1,0.026,1.623,0.081l-0.003,0.16c-5.958,0.31-11.229,2.916-13.219,4.022l-0.063,0.035l-0.042-0.061
				c-0.007-0.011-0.79-1.129-3.423-1.762c-1.759-0.709-3.476-1.067-5.115-1.067c-1.88,0-3.726,0.463-5.488,1.378
				c-1.736,0.638-3.493,2.076-5.379,4.4c-4.087,4.646-7.147,11.24-9.694,17.057c-0.651,1.38-1.293,2.758-1.923,4.113
				c-3.273,7.039-6.367,13.688-9.021,16.282l-0.122,0.119L92.007,66.901z M123.503,22.945c-2.485,0-4.85,0.569-7.041,1.478
				c2.25-0.894,4.63-1.401,7.099-1.401c1.375,0,2.76,0.163,4.124,0.484C126.321,23.134,124.918,22.945,123.503,22.945z"/>
		</g>
		<g>
			<path fill="#FAFAF9" d="M155.195,91.189c-0.288,0-0.576-0.008-0.868-0.022c-4.539-0.227-6.905-2.581-8.092-4.516
				c-2.061-3.363-2.177-8.248-0.296-12.444c2.345-5.23,6.849-8.648,11.753-8.92c0.15-0.007,0.301-0.012,0.446-0.012
				c1.647,0,3.154,0.512,4.607,1.565c0.192,0.232,0.388,0.387,0.596,0.473c1.54,1.295,2.729,2.973,3.596,4.292
				c1.446,2.204,3.241,4.457,5.577,4.457c0.991,0,2.011-0.387,3.116-1.182l0.101,0.122c-0.11,0.104-0.22,0.209-0.319,0.32
				l-0.062-0.053l0.004,0.108l0.081,0.021l-0.089,0.087C172.63,84.439,163.967,91.189,155.195,91.189z"/>
			<path fill="#FAFAF9" d="M124.201,91.189c-8.771,0-17.435-6.75-20.153-15.702l-0.023-0.08l0.082-0.021l-0.121-0.063
				c-0.101-0.113-0.211-0.217-0.321-0.32l0.102-0.123c1.104,0.795,2.125,1.182,3.116,1.182c2.337,0,4.131-2.253,5.578-4.457
				c0.867-1.319,2.057-2.999,3.574-4.28c0.229-0.098,0.425-0.253,0.602-0.472c1.468-1.066,2.974-1.578,4.621-1.578
				c0.146,0,0.296,0.005,0.447,0.012c4.904,0.272,9.408,3.69,11.752,8.92c1.881,4.196,1.764,9.081-0.297,12.445
				c-1.186,1.935-3.552,4.289-8.091,4.515C124.778,91.181,124.49,91.189,124.201,91.189z"/>
		</g>
		<g>
			<path fill="#F37A60" d="M127.5,271.51c-0.206-0.05-0.398-0.249-0.568-0.594c-0.161-0.322-0.206-0.565-0.138-0.741
				c0.016-0.041,0.061-0.111,0.183-0.111c0.032,0,0.064,0.005,0.094,0.009c0.12,0.019,0.256,0.073,0.385,0.129
				c0.105,0.041,0.209,0.087,0.306,0.108l0.082,0.02l-0.023,0.08c-0.021,0.075-0.025,0.144-0.012,0.207
				c0.026,0.107,0.082,0.196,0.168,0.266l0.053,0.044l-0.033,0.058c-0.022,0.04-0.042,0.086-0.066,0.136
				c-0.086,0.186-0.184,0.398-0.374,0.398L127.5,271.51z"/>
			<path fill="#F37A60" d="M128.461,270.793c-0.063,0-0.126-0.009-0.18-0.019c-0.202-0.033-0.339-0.193-0.342-0.394
				c-0.001-0.179,0.136-0.223,0.226-0.249c0.033-0.011,0.063-0.021,0.086-0.033l-0.2-0.13c0,0,0.259-0.002,0.278-0.002
				c0.062,0,0.087,0.004,0.112,0.011c0.236,0.062,0.374,0.3,0.387,0.502c0.005,0.085-0.017,0.157-0.067,0.211
				C128.698,270.758,128.597,270.793,128.461,270.793z"/>
			<path fill="#F37A60" d="M129.169,270.406l-0.074-0.071c-0.013-0.172-0.082-0.328-0.197-0.445
				c-0.057-0.059-0.145-0.108-0.257-0.147l-0.082-0.026l0.034-0.081c0.026-0.06,0.106-0.244,0.284-0.244l0.081,0.014
				c0.158,0.047,0.269,0.193,0.367,0.342c0.096,0.147,0.156,0.318,0.164,0.472c0.003,0.063-0.011,0.11-0.044,0.146
				c-0.043,0.046-0.103,0.05-0.145,0.05L129.169,270.406z"/>
			<path fill="#F37A60" d="M142.714,272.286c-0.084,0-0.166-0.02-0.252-0.065c-0.282-0.146-0.427-0.49-0.347-0.822
				c0.066-0.272,0.3-0.443,0.608-0.443c0.088,0,0.179,0.016,0.262,0.044c0.279,0.096,0.394,0.302,0.458,0.452l0.028,0.068
				l-0.065,0.033c-0.103,0.053-0.186,0.13-0.238,0.222c-0.058,0.104-0.075,0.213-0.052,0.326l0.014,0.065l-0.063,0.024
				C142.924,272.247,142.828,272.286,142.714,272.286z"/>
			<path fill="#F37A60" d="M143.723,272.425c-0.164,0-0.304-0.055-0.397-0.153c-0.084-0.089-0.123-0.208-0.115-0.346
				c0.012-0.183,0.135-0.336,0.318-0.393l0.079-0.024l0.022,0.078c0.064,0.274,0.098,0.322,0.106,0.335
				c-0.005-0.175,0.009-0.303,0.015-0.357l0.005-0.041l0.041-0.046c0.052-0.024,0.108-0.039,0.169-0.039
				c0.186,0,0.36,0.128,0.404,0.3c0.05,0.196-0.088,0.449-0.25,0.563C144.008,272.38,143.865,272.425,143.723,272.425z"/>
			<path fill="#F37A60" d="M144.555,272.719c-0.195,0-0.266-0.177-0.321-0.32l-0.02-0.049l0.038-0.037
				c0.117-0.115,0.192-0.233,0.23-0.36c0.021-0.073,0.022-0.147,0.002-0.226l-0.018-0.062l0.055-0.028
				c0.205-0.113,0.362-0.171,0.481-0.171c0.109,0,0.169,0.048,0.201,0.088c0.128,0.16,0.01,0.437-0.122,0.686
				c-0.077,0.143-0.274,0.467-0.511,0.479L144.555,272.719z"/>
		</g>
	</g>
	<g>
		<path fill="#FACBCB" d="M154.799,92.958c3.998-0.141,8.998-1.054,13.267-4.293c3.842-2.917,4.618,4.668-2.742,7.602
			c-2.375,0.947-5.043,1.535-9.619,0.107C153.584,95.709,150.009,93.125,154.799,92.958z"/>
		<path fill="#FACBCB" d="M124.214,92.958c-3.998-0.141-8.997-1.054-13.266-4.293c-3.842-2.917-4.619,4.668,2.743,7.602
			c2.374,0.947,5.041,1.535,9.618,0.107C125.43,95.709,129.005,93.125,124.214,92.958z"/>
	</g>
	<g>
		<g>
			<path fill="#9A8479" d="M170.313,274.338c-4.857-0.301-18.408-0.39-23.205,0.499c-0.032,0.006-0.049,0.058-0.007,0.061
				c4.936,0.259,18.225-0.013,23.158-0.344C170.378,274.546,170.477,274.348,170.313,274.338z"/>
			<path fill="#9A8479" d="M179.518,270.344c-4.215-0.205-26.354-0.328-30.425,1.078c-0.037,0.011-0.071,0.094-0.011,0.085
				c4.43-0.502,25.957-0.857,30.395-0.998C179.569,270.506,179.639,270.35,179.518,270.344z"/>
			<path fill="#9A8479" d="M185.817,267.438c-4.765-0.152-31.228,0.445-35.999,0.548c-0.082,0.002-0.144,0.142-0.035,0.147
				c4.749,0.266,31.24-0.246,35.985-0.496C185.879,267.631,185.966,267.442,185.817,267.438z"/>
			<path fill="#9A8479" d="M149.778,265.74c2.804,0.153,20.273,0.149,23.079,0.061c0.125-0.004,0.214-0.196,0.055-0.218
				c-2.77-0.353-20.304-0.175-23.089-0.025C149.723,265.563,149.643,265.733,149.778,265.74z"/>
			<path fill="#9A8479" d="M134.276,275.888c-0.616,0.019-1.233,0.024-1.779,0.24c-0.02,0.007-0.017,0.033,0.005,0.03
				c0.015,0.002,0.031,0.003,0.045,0.003c0.01,0.033,0.045,0.059,0.08,0.055c1.551-0.156,3.126,0.047,4.675-0.132
				c0.089-0.013,0.165-0.15,0.041-0.166C136.333,275.793,135.291,275.86,134.276,275.888z"/>
			<path fill="#9A8479" d="M138.501,273.507c-1.139-0.162-2.338-0.023-3.48,0.056c-1.004,0.068-2.178,0.123-3.097,0.563
				c-0.036,0.018-0.035,0.071,0.01,0.065c2.164-0.267,4.374-0.218,6.523-0.517C138.528,273.664,138.601,273.521,138.501,273.507z"/>
			<path fill="#9A8479" d="M138.624,270.517c-2.332-0.05-4.97-0.134-7.257,0.32c-0.046,0.009-0.101,0.105-0.03,0.117
				c0.966,0.159,1.983,0.063,2.964,0.036c1.421-0.036,2.905,0.018,4.299-0.286C138.694,270.685,138.751,270.519,138.624,270.517z"/>
			<path fill="#9A8479" d="M128.681,268.03c-0.033,0.003-0.061,0.056-0.015,0.062c3.613,0.319,7.431-0.015,11.046-0.237
				c0.087-0.005,0.156-0.15,0.041-0.156C136.119,267.508,132.303,267.684,128.681,268.03z"/>
			<path fill="#9A8479" d="M127.796,265.469c3.735,0.471,7.612-0.137,11.345-0.428c0.109-0.009,0.2-0.192,0.051-0.199
				c-3.787-0.188-7.542,0.637-11.344,0.421C127.728,265.254,127.647,265.452,127.796,265.469z"/>
			<path fill="#9A8479" d="M118.313,267.264c0.012,0.043,0.063,0.074,0.106,0.07c0.534-0.049,1.069-0.093,1.606-0.135
				c0.543-0.04,1.18-0.011,1.701-0.177c0.078-0.026,0.164-0.152,0.048-0.193c-0.602-0.213-1.512,0.031-2.13,0.098
				c-0.334,0.036-0.668,0.072-1.001,0.112c-0.137,0.016-0.237,0.104-0.323,0.124c-0.045,0.012-0.076,0.093-0.01,0.095
				C118.32,267.256,118.321,267.258,118.313,267.264z"/>
			<path fill="#9A8479" d="M120.201,269.167c0.829-0.007,1.696,0.093,2.518-0.036c0.065-0.01,0.135-0.141,0.04-0.158
				c-0.881-0.157-1.844-0.093-2.736-0.067c-0.643,0.019-1.468,0.005-2,0.411c-0.025,0.02-0.008,0.057,0.022,0.043
				C118.662,269.074,119.544,269.174,120.201,269.167z"/>
			<path fill="#9A8479" d="M123.08,270.867c0.092-0.011,0.192-0.208,0.057-0.227c-0.977-0.134-2.011-0.006-2.986,0.089
				c-0.485,0.046-1.455-0.003-1.782,0.43c-0.014,0.019-0.019,0.052,0.01,0.059c0.568,0.13,1.348-0.143,1.93-0.184
				C121.229,270.968,122.166,270.993,123.08,270.867z"/>
			<path fill="#9A8479" d="M125.368,272.798c-1.824-0.183-3.784-0.02-5.552,0.463c-0.056,0.015-0.07,0.107,0.002,0.092
				c1.835-0.342,3.665-0.211,5.509-0.389C125.416,272.954,125.492,272.811,125.368,272.798z"/>
			<path fill="#9A8479" d="M127.356,275.054c-1.661-0.163-3.488,0.012-5.131,0.291c-0.09,0.016-0.142,0.18-0.02,0.181
				c1.675,0.011,3.437-0.102,5.102-0.28C127.411,275.234,127.5,275.068,127.356,275.054z"/>
			<path fill="#9A8479" d="M131.471,276.884c-2.295-0.132-4.723-0.208-6.976,0.321c-0.069,0.017-0.116,0.154-0.018,0.146
				c2.32-0.24,4.617-0.138,6.939-0.249C131.538,277.097,131.631,276.894,131.471,276.884z"/>
			<path fill="#9A8479" d="M138.869,277.335c2.55,0.039,16.196-0.007,18.726-0.398c0.074-0.011,1.302-0.271,1.206-0.265
				c-2.556,0.125-17.343,0.505-19.903,0.548C138.833,277.222,138.787,277.333,138.869,277.335z"/>
			<path fill="#9A8479" d="M151.852,279.125c-4.116-0.288-17.407-0.506-21.479,0.177c-0.103,0.019-0.16,0.22-0.024,0.206
				c4.162-0.398,17.295,0.082,21.455-0.203C151.904,279.298,151.985,279.134,151.852,279.125z"/>
			<path fill="#9A8479" d="M135.389,280.445c-0.027,0.001-1.523,0.14-1.228,0.41c0.039,0.035,0.104-0.008,0.091-0.058
				c0.03,0.123,3.942-0.089,4.349-0.159c0.082-0.015,0.172-0.179,0.051-0.202C137.609,280.244,136.439,280.383,135.389,280.445z"/>
		</g>
		<path fill="#9A8479" d="M129.58,269.592c-0.148-0.198-0.379-0.382-0.636-0.38c-0.248,0.001-0.381,0.202-0.448,0.413
			c-0.355-0.061-0.61,0.263-0.527,0.449c-0.139,0.01-0.144,0.14-0.175,0.195c-0.232-0.289-0.847-0.535-1.121-0.244
			c-0.245,0.258-0.135,0.694-0.022,0.986c0.125,0.32,0.366,0.712,0.729,0.793c0.385,0.084,0.811-0.333,0.868-0.719
			c0.253,0.047,0.538-0.018,0.716-0.188c0.057-0.052,0.09-0.117,0.124-0.182c0.263,0.046,0.578-0.085,0.674-0.336
			C129.87,270.104,129.746,269.813,129.58,269.592z M127.519,271.432c-0.238-0.058-0.416-0.351-0.516-0.552
			c-0.089-0.18-0.214-0.473-0.134-0.676c0.029-0.075,0.12-0.064,0.189-0.054c0.207,0.032,0.469,0.187,0.686,0.236
			c-0.023,0.081-0.032,0.164-0.013,0.246c0.031,0.132,0.102,0.235,0.196,0.313C127.825,271.13,127.727,271.48,127.519,271.432z
			 M128.295,270.696c-0.165-0.028-0.273-0.153-0.275-0.316c-0.001-0.169,0.166-0.151,0.272-0.214
			c0.019-0.011,0.041-0.032,0.031-0.059c-0.011-0.029-0.032-0.044-0.057-0.06c0.052-0.004,0.103-0.008,0.154,0.007
			c0.188,0.05,0.315,0.245,0.328,0.431C128.765,270.735,128.473,270.729,128.295,270.696z M129.176,270.328
			c-0.014-0.181-0.085-0.358-0.219-0.496c-0.07-0.07-0.173-0.125-0.289-0.165c0.051-0.12,0.129-0.229,0.268-0.187
			c0.141,0.043,0.247,0.194,0.322,0.309c0.081,0.124,0.143,0.284,0.152,0.434C129.418,270.373,129.29,270.327,129.176,270.328z"/>
		<path fill="#9A8479" d="M145.445,271.44c-0.194-0.335-0.633-0.116-0.958,0.107c-0.147-0.193-0.44-0.278-0.691-0.188
			c-0.024,0.011-0.063,0.011-0.207,0.057c-0.047-0.283-0.278-0.53-0.553-0.633c-0.451-0.169-0.926,0.126-1.125,0.525
			c-0.203,0.408-0.021,0.893,0.339,1.14c0.251,0.17,0.695,0.164,0.948-0.037c0.123,0.125,0.296,0.206,0.489,0.214
			c0.082,0.002,0.16-0.015,0.236-0.033c0.077,0.147,0.192,0.288,0.271,0.344c0.228,0.155,0.516,0.05,0.714-0.1
			C145.252,272.578,145.696,271.876,145.445,271.44z M142.5,272.149c-0.266-0.136-0.374-0.455-0.306-0.733
			c0.085-0.352,0.467-0.443,0.766-0.341c0.219,0.075,0.333,0.225,0.411,0.405c-0.113,0.058-0.209,0.145-0.272,0.256
			c-0.073,0.131-0.085,0.26-0.061,0.381C142.865,272.184,142.717,272.264,142.5,272.149z M143.291,271.93
			c0.009-0.139,0.103-0.271,0.263-0.32c0.007,0.023,0.11,0.538,0.189,0.33c0.081-0.211,0.084-0.364,0.09-0.39
			c0.175-0.09,0.412,0.024,0.458,0.21c0.042,0.162-0.086,0.382-0.219,0.478C143.788,272.439,143.264,272.367,143.291,271.93z
			 M145.008,272.207c-0.084,0.156-0.259,0.421-0.441,0.431c-0.149,0.009-0.205-0.131-0.26-0.269c0.113-0.108,0.206-0.239,0.25-0.395
			c0.03-0.099,0.025-0.188,0.003-0.27c0.22-0.121,0.48-0.229,0.581-0.102C145.256,271.747,145.076,272.078,145.008,272.207z"/>
		<path fill="#9A8479" d="M205.667,62.876c-1.94-0.026-3.188,1.13-4.001,2.811c-0.062,0.128-0.081,0.348,0.079,0.423
			c1.608,0.772,2.32,0.457,3.867-0.402c0.249-0.139,0.288-0.648-0.089-0.518c0.232-0.081-3.877,1.558-2.511-0.442
			c1.284-1.875,4.37-1.343,4.065,1.188c-0.265,2.208-2.943,4.042-4.846,4.716c-3.209,1.137-6.93,0.248-10.021-0.835
			c-1.504-0.527-3.457-1.382-5.363-2.503c0.112-1.729,0.129-3.433,0.061-5.099c0.238,0.045,0.475,0.096,0.719,0.123
			c3.902,0.409,10.603-0.223,13.304-3.511c2.367-2.877-4.037-5.485-6.228-4.501c-1.175,0.528-1.745,1.979-1.439,3.167
			c0.442,1.708,2.813,0.742,3.73,0.232c0.313-0.173,0.214-0.661-0.16-0.475c-3.598,1.796-3.986-2.426-0.799-2.73
			c1.494-0.144,5.422,1.782,4.594,3.822c-1.088,2.672-6.986,3.196-9.37,3.439c-1.654,0.169-3.079,0.106-4.386-0.212
			c-0.149-2.795-0.523-5.484-1.06-8.028c3.953,0.082,7.874-0.66,10.096-3.077c3.385-3.681-1.583-13.061-6.5-11.085
			c-1.562,0.626-2.613,2.918-2.316,4.522c0.108,0.591,0.34,0.958,0.64,1.171c1.333,0.735,2.913,0.443,3.544-0.097
			c0.329-0.283,0.546-0.728,0.102-0.941c-1.104-0.531-1.979,1.304-3.22,0.31c-0.693-0.556-0.257-1.947,0.009-2.633
			c1.511-3.888,5.046-0.646,6.5,1.363c1.661,2.292,2.72,5.41,0.174,7.458c-2.039,1.643-5.204,1.899-7.702,2.025
			c-0.508,0.025-1.021,0.037-1.531,0.041c-1.123-4.895-2.825-9.208-4.608-12.638c0.228-0.073,0.457-0.139,0.68-0.221
			c2.827-1.046,4.672-3.407,5.095-6.35c0.401-2.789-1.662-6.638-4.391-7.592c-2.125-0.744-4.617-0.154-5.399,2.138
			c-0.904,2.65,2.612,3.212,4.306,2.815c0.268-0.063,0.617-0.514,0.277-0.722c-0.825-0.506-0.647,0.203-1.761,0.147
			c-0.585-0.071-1.124-0.326-1.612-0.78c-2.086-2.043,2.657-3.403,4.364-2.467c1.605,0.88,2.63,2.826,3.194,4.466
			c1.319,3.848-1.872,6.699-5.117,7.873c-1.758-3.241-3.559-5.612-4.937-6.823c-6.017-5.282-13.099-9.408-20.643-12.12
			c7.031,2.269,10.271,2.161,14.385,0.223c2.572-1.212,5.912-4.412,2.946-6.898c-1.778-1.489-3.979-0.373-4.54,1.64
			c-0.813,2.913,3.161,1.636,4.264,0.83c0.11-0.081,0.082-0.306-0.084-0.246c-1.351,0.479-4.456,1.354-3.367-1.182
			c0.641-1.493,2.199-1.154,3.304-0.536c2.941,1.647-0.411,4.371-1.537,5.207c-3.711,2.752-8.652,2.262-12.928,1.025
			c1.413-0.063,2.787-0.29,3.968-0.714c3.35-1.205,4.722-4.951,3.114-8.036c-1.438-2.76-5.068-2.107-6.58,0.174
			c-0.574,0.867-0.104,2.211,0.688,2.769c1.45,1.026,2.992,0.962,4.485,0.069c0.294-0.176,0.195-0.659-0.155-0.46
			c-1.467,0.832-3.026,0.817-4.221-0.377c-1.031-1.515-0.352-2.659,2.039-3.433c1.206-0.359,2.214,0.315,2.945,1.147
			c1.893,2.151,0.887,5.31-1.084,6.945c-3.045,2.528-9.105,1.163-10.348,0.95c-0.646-0.2-1.294-0.394-1.945-0.573
			c2.033-0.041,4.228-1.004,5.462-2.247c2.411-2.426,2.567-6.562-0.674-8.346c-2.583-1.424-6.578,0.881-6.165,3.959
			c0.33,2.473,4.015,1.645,4.459-0.347c0.091-0.406-0.459-0.271-0.563,0c-0.476,1.245-1.68,1.619-2.77,0.909
			c-1.443-0.941,0.232-3.026,1.018-3.713c2.556-2.246,5.71,0.757,5.919,3.347c0.408,5.058-7.645,6.116-9.409,5.756
			c-3.079-0.7-6.199-1.176-9.329-1.386c-13.267-0.89-27.166,3.781-36.647,13.203c-7.953,7.908-10.299,17.06-10.541,27.171
			c-2.236,2.586-5.024,4.32-8.509,3.598c-3.818-0.79-6.214-4.459-2.631-7.219c1.467-1.129,3.394-1.012,4.098,0.827
			c0.036,0.095,0.257,1.316-0.059,1.865c-0.63,1.096-1.682,0.637-2.031,0.085c-0.17-0.678,0.144-0.945,0.796-0.459
			c0.054,0.289,0.952,0.299,0.417-0.316c-0.534-0.616-1.023-0.559-1.514-0.225c-0.49,0.333-0.42,1.241-0.064,1.823
			c0.554,0.905,3.093,0.648,3.211-1.024c0.144-2.017-0.391-3.947-2.823-3.896c-1.771,0.037-3.707,1.692-4.265,3.317
			c-1.976,5.753,7.249,6.991,10.697,4.606c0.972-0.672,1.85-1.458,2.664-2.313c-0.047,3.16,0.102,6.413,0.343,9.751
			c-0.268,0.263-0.538,0.524-0.82,0.77c-1.313-0.176-2.208,0.668-2.787,1.942c-2.882,1.44-6.056,0.923-8.892-0.537
			c-2.15-1.108-3.416-3.116-4.195-5.364c-0.964-2.781,2.319-3.282,3.838-1.479c0.484,0.575,0.625,1.442,0.676,2.157
			c0.111,1.585-1.793,0.407-1.792,0.477c-0.011-0.593-0.688-1.432-1.34-1.106c-0.186,0.093,0.056,0.723,0.206,0.909
			c2.15,2.677,4.185,1.251,3.238-1.893c-0.622-2.067-5.452-3.697-5.642-0.688c-0.421,6.699,8.039,10.463,13.505,8.268
			c0.045-0.018,0.087-0.043,0.133-0.062c-0.76,2.253-0.742,5.345-0.351,6.806c1.514,5.658,7.372,10.65,12.706,12.963
			c1.987,2.473,4.265,4.731,6.631,6.751c3.329,2.84,7.02,5.248,10.853,7.364c-1.537,0.407-3.072,1.557-4.12,2.479
			c-0.691,0.605-1.341,1.345-1.597,2.244c-0.149,0.528,0.001,1.532,0.775,0.949c0.781-0.35,2.547-0.195,3.75-0.019
			c-0.241,2.043,1.003,4.09,1.975,5.804c1.806,3.185,4.097,5.976,5.554,9.364c0.841,1.953,1.57,3.955,2.23,5.98
			c1.47,8.648,0.512,17.109-3.403,25.138c-2.038,4.178-4.835,8.542-11.748,13.753c-1.84,1.77-4.097,2.312-5.27,3.216
			c0.184,3.18,3.428,7.099,4.82,8.446c2.427,2.35,5.289,4.458,8.262,6.141c0.017,0.205,0.039,0.398,0.062,0.486
			c0.414,1.547,0.702,3.131,1.136,4.681c0.947,3.384,1.969,6.706,2.688,10.152c1.444,6.916,3.432,19.672,3.178,21.187
			c-1.394,4.154-3.042,11.416-3.902,17.043c-0.494,3.223-0.757,6.477-0.847,9.737c-0.09,3.255-0.328,6.768,0.768,9.884
			c-1.245,4.375,0.539,8.493,3.394,11.816c1.03,1.2,4.584,5.224,6.556,3.869c1.645-1.13,0.667-3.981,0.161-5.444
			c-0.459-1.329-1.161-2.581-2-3.702c-0.264-0.353-0.428-0.595-0.696-0.977c-0.033-0.197-0.299-0.727-0.511-0.72
			c-1.044-1.486-2.184-3.001-3.695-3.848c-0.519-5.344,0.973-11.182,1.555-16.503c0.7-6.401,1.834-14.272,2.664-18.26
			c0.207-0.726,0.934-2.09,0.346-4.111c0.092-1.445,0.701-8.981,1.142-13.302c0.547-5.357,1.868-10.656,2.346-16.001
			c1.046,0.229,3.599,0.55,3.785,0.564c-0.627,9.848,1.41,28.5,1.194,29.829c-0.459,1.896,0.544,4.321,0.918,5.138
			c0.691,3.115,1.667,6.021,2.157,8.908c1.309,7.733,4.069,15.519,4.161,23.384c0,0.012,0.009,0.013,0.01,0.023
			c-2.548,2.292-9.056,13.44-2.883,15.206c2.632,0.754,4.961-3.055,5.896-4.854c1.624-3.126,1.91-7.427,0.857-10.797
			c0.007,0.014,0.01,0.027,0.016,0.041c0.057,0.138,0.289,0.032,0.271-0.098c-0.439-3.117-0.3-6.233-0.532-9.363
			c-0.289-3.925-0.8-7.835-1.391-11.727c-0.928-6.125-4.211-13.215-4.75-15.776c-1.079-10.113,3.577-22.382,5.339-32.15
			c1.864-0.779,3.682-1.687,5.452-2.603c1.605,0.372,4.223,0.844,4.649-0.858c0.309-1.235-0.414-2.158-1.47-2.854
			c1.188-1.539,1.972-3.289,2.803-4.591c0.828-1.301,1.706-2.155,1.506-2.295c-0.849-0.277-3.254-3.291-4.541-5.263
			c-1.307-2.002-1.9-4.144-2.679-6.317c0.106-5.706-1.104-14.983-0.858-18.115c0.743-9.799,6.731-21.596,8.606-26.265
			c1.737-4.326,6.021-9.629,5.428-14.56c2.222-0.961,4.289-1.364,6.767-1.608c0.095-0.01,1.095,0.359,0.846-0.811
			c-0.626-2.944-4.866-5.267-8.004-5.199c3.414-2.503,6.403-5.392,9.014-8.784c0.003-0.001,0.005,0,0.006,0
			c5.208-1.566,11.471-5.618,14.372-10.28c2.362-3.8,3.051-12.244-3.418-11.897c0.101-0.779,0.176-1.553,0.236-2.323
			c3.414,2.167,7.418,3.569,11.382,3.813c3.986,0.247,9.22-1.982,9.754-6.466C208.083,64.101,206.938,62.892,205.667,62.876z
			 M186.452,67.076c-3.695-2.256-7.068-5.514-6.457-9.348c1.804,1.987,3.843,3.657,6.241,4.327
			C186.403,63.74,186.479,65.42,186.452,67.076z M186.161,61.363c-1.704-0.558-3.225-1.591-4.814-3.188
			c-1.637-1.641-3.178-4.643-5.142-6.278c0.088,0.03,0.17,0.064,0.259,0.093c2.139,0.697,5.151,1.33,8.24,1.507
			C185.354,56.061,185.86,58.711,186.161,61.363z M184.465,52.583c-4.445-0.125-8.891-1.174-12.502-3.811
			c-6.705-4.899-7.461-12.249-12.392-18.569c-0.879-1.126-3.329-3.789-6.987-5.717c3.848,1.802,7.297,4.676,9.863,8.097
			c2.53,3.375,4.888,6.119,9.004,7.484c2.69,0.891,5.676,0.884,8.434,0.205C181.565,43.698,183.229,47.976,184.465,52.583z
			 M91.552,68.321c0.006,0.091,0.014,0.18,0.021,0.27c-0.079-0.033-0.152-0.059-0.228-0.085
			C91.413,68.442,91.484,68.385,91.552,68.321z M89.964,68.915c-0.468,0.365-0.949,0.714-1.456,1.024
			c-0.037,0.021-0.075,0.039-0.112,0.062C88.784,69.446,89.298,69.051,89.964,68.915z M112.446,110.29
			c-0.002,0.001-0.003,0.003-0.005,0.004c-0.138-0.345-0.287-0.629-0.047-1.175c0.357-0.81,1.111-1.459,1.778-2.011
			c0.957-0.79,2.296-1.721,3.628-2.073c0.666,0.363,1.333,0.721,2.006,1.068c3.939,2.03,10.642,4.537,13.499,5.741
			c-0.018,0.015-0.038,0.031-0.055,0.046c-1.833,0.947-5.373,6.231-5.973,9.169c-0.052-0.293-0.095-0.963-0.1-1.007
			C126.455,113.5,118.761,108.376,112.446,110.29z M148.738,171.185c0.327,3.662,1.813,9.309-1.891,12.284
			c-2.12-0.122-5.29,0.672-7.4,1.197c-1.5-2.115-1.484-4.886-1.796-7.382c-0.354-2.83-0.58-5.675-0.84-8.513
			c-0.466-5.078-1.107-11.935-2.441-16.871c-0.377-2.736-0.189-3.776-0.623-6.512c-0.496-3.113-1.347-6.172-2.193-9.205
			c-0.839-3.008-1.638-6.039-2.555-9.023c-0.51-1.661-1.102-3.313-1.499-5.005c0.081-0.296,0.142-0.615,0.238-0.851
			c0.416-1.021,0.943-2.007,1.455-2.982c0.904-1.719,1.921-4.109,3.463-5.518c-0.446,1.429,0.538,3.393,1.185,4.54
			c1.48,2.628,4.49,5.288,6.627,6.214c-0.124,0.13-0.443,0.599-0.438,1.225c-2.769,0.74-5.382,4.49-5.889,7.178
			c-0.478,2.535,1.806,4.678,3.706,3.498c0.735-0.226,1.501-1.061,1.764-1.5c1.012-1.692,2.159-4.258,1.775-6.297
			c0.233,0.16,0.484,0.283,0.753,0.366c-0.812,1.888,0.051,4.257,0.569,6.116c0.474,1.703,0.912,3.306,0.969,5.087
			c0.038,1.197-0.171,5.46-2.734,4.832c0.483-0.411,0.753-1.376,0.737-2.162c-0.049-2.194-2.354-1.068-2.791,0.319
			c-0.28,0.89,0.86,2.107,1.64,2.267c1.486,0.305,2.249-0.383,3.011-1.598c1.288-2.057,0.387-6.8,0.38-6.84
			c-0.47-2.554-2.023-5.354-0.781-7.885c0.067-0.002,0.132-0.002,0.2-0.009c-0.011,0.91,0.27,1.742,0.504,2.633
			c0.443,1.693,0.334,3.517,0.651,5.237c0.337,1.832,0.797,4.051,2.57,5.015c2.171,1.178,3.896-1.977,2.729-3.641
			c-0.849-1.212-3.731,0.176-2.624,1.603c0.696,0.897,1.939,0.849,2.516,0.22c-0.041,0.168-0.101,0.353-0.205,0.573
			c-1.187,2.98-3.31-0.388-3.653-1.088c-0.241-0.491-0.388-1.036-0.545-1.559c-0.554-1.861-0.614-3.894-0.854-5.815
			c-0.138-1.093-0.627-2.132-0.879-3.21c0.52-0.083,1.023-0.278,1.447-0.614c0.096-0.078,0.167-0.165,0.248-0.25
			c-0.02,0.037-0.029,0.077-0.021,0.119c0.406,1.997,1.717,4.563,3.743,5.331c1.709,0.647,3.025-0.059,3.409-0.786
			c0.885-1.675-0.048-3.554-1.093-4.918c-1.429-1.865-3.899-3.102-6.187-3.171c-0.058-0.058-0.173-0.219-0.381-0.324
			c3.985-2.68,5.334-9.788,6.439-14.051c1.4-0.579,2.799-1.173,4.186-1.793c1.229,2.518,1.275,5.262,1.648,8.003
			c0.266,1.952,0.607,3.844,0.656,5.819c0.052,2.019-1.032,6.14-0.964,6.156c-0.455,1.054-0.919,2.104-1.382,3.151
			c-2.167,4.92-5.436,12.396-5.631,17.515C147.266,154.92,148.327,166.568,148.738,171.185z M142.475,125.962
			c1.09-0.958,1.945-1.399,2.445-1.326c0.678,0.147,1.032,2.607-1.25,2.896c-0.824,0.155-1.699-0.046-2.328-0.598
			c-0.428-0.375-0.986-1.354-0.707-2.43c0.28-1.075,1.274-1.246,1.708-1.312c0.295-0.043,1.826-0.014,2.032,0.9
			C142.755,124.534,142.029,126.354,142.475,125.962z M148.9,128.392c-0.627-1.062-1.692-2.522-2.994-2.851
			c-0.028-0.517-0.229-1.03-0.578-1.467c3.539,0.333,6.711,3.136,6.969,6.505c0.092,1.199-1.046,2.193-1.806,1.973
			C150.337,131.165,149.565,129.519,148.9,128.392z M150.214,132.384c-0.02,0.468-1.617-0.162-1.904-0.399
			c-1.518-1.261-2.474-2.9-2.842-4.676c-0.021-0.099-0.06-0.185-0.133-0.147c0.329-0.376,0.505-0.808,0.552-1.253
			c1.039,0.822,1.877,1.614,2.604,2.804C149.203,129.875,149.874,131.139,150.214,132.384z M142.955,128.156
			c-0.379,0.668-0.563,1.48-0.607,2.347c-0.118-0.831-0.143-1.643-0.009-2.429C142.541,128.123,142.745,128.149,142.955,128.156z
			 M140.994,127.352c-0.011,0.021-0.027,0.043-0.029,0.063c-0.118,1.642-0.396,3.136-1.029,4.664
			c-0.196,0.473-0.419,0.932-0.66,1.383c-0.462,0.866-2.066,2.485-2.236,0.862c-0.28-2.675,1.155-6.28,3.403-7.612
			c0.023-0.015,0.045-0.059,0.032-0.083C140.517,126.709,140.722,127.189,140.994,127.352z M140.44,126.614
			c-3.985,1.197-4.57,8.056-3.294,8.642c-0.983,0.451-2.462-1.251-2.502-2.587c-0.037-1.24,0.447-2.639,1.066-3.662
			c1.045-1.721,2.723-2.871,4.317-4.056c0.023,0.586,0.207,1.204,0.444,1.672C140.466,126.617,140.456,126.608,140.44,126.614z
			 M140.438,143.383c0.554-1.605,0.816-1.95,0.778-1.005C141.286,143.021,141.024,143.354,140.438,143.383z M149.331,138.445
			c-0.214,0.485-0.704,0.753-1.306,0.475l-0.24-0.151C148.5,138.49,149.009,138.387,149.331,138.445z M144.294,123.238
			c-1.019-0.548-2.339-0.689-3.273-0.135c-2.333-1.001-3.935-2.479-5.487-4.455c-1.288-1.641-3.083-4.175-2.272-6.321
			c0.062-0.113,0.092-0.183,0.284-0.382c0.486,0.209,0.836,0.373,1.004,0.477c3.889,1.743,8.313,1.935,14.015-1.904
			c0.771-0.314,1.539-0.631,2.31-0.948C148.819,114.376,148.006,119.367,144.294,123.238z M116.528,166.516
			c3.208-3.239,5.667-7.178,7.532-11.313c2.789-6.187,3.892-13.389,2.997-20.208c0.379,1.312,0.738,2.628,1.082,3.945
			c1.253,4.804,2.498,7.662,2.605,12.636c-0.948,2.94,1.289,15.034,2.692,21.218c0.782,3.449,1.499,6.897,2.076,10.389
			c0.091,0.55,0.194,1.1,0.315,1.643c-6.391,1.079-11.643-1.391-14.367-2.987c-4.593-2.689-7.186-6.881-9.965-11.194
			C113.187,169.266,115.041,168.018,116.528,166.516z M128.981,268.097c1.553,2.081,2.788,4.328,2.949,7.081
			c0.244,4.134-5.553-1.558-6.237-2.265c-1.062-1.097-1.927-2.32-2.567-3.633c0.764,0.405,1.749,0.602,2.371,0.632
			C126.895,269.982,128.5,269.316,128.981,268.097z M130.171,209.397c-0.561,4.832-1.342,13.381-1.16,14.048
			c0.469,1.73,0.106,3.351-0.426,4.148c-0.479,1.648-1.787,11.176-2.514,17.369c-0.413,3.516-0.759,6.131-1.208,9.645
			c-0.316,2.476-0.797,5.423-0.07,8.619c0.023,0.104,0.166,0.066,0.225-0.006c1.114,1.439,2.372,2.827,3.507,4.277
			c-0.079,0.657-0.238,1.255-0.953,1.639c-0.666,0.357-1.493,0.399-2.23,0.379c-0.974-0.028-1.923-0.298-2.522-0.913
			c-0.851-2.038-1.163-4.264-0.823-6.543c0.133,0.115,0.398-0.081,0.358-0.268c-1.542-7.245-0.736-15.072,0.42-22.324
			c0.503-3.153,1.644-9.447,3.398-14.375c0.223-1.246-0.424-6.04-0.895-9.019c-0.549-3.481-0.997-6.973-1.631-10.439
			c-0.075-0.407-0.182-0.917-0.314-1.496c1.703,1.649,5.529,1.102,7.337,0.271c0.032-0.014,0.056-0.033,0.079-0.054
			C130.537,206.063,130.36,207.762,130.171,209.397z M130.792,203.997c-0.054-0.058-0.145-0.081-0.269-0.024
			c-1.242,0.568-2.529,0.736-3.886,0.683c-1.311-0.052-2.297-0.637-3.439-1.097c-1.043-4.422-3.221-12.161-3.898-14.887
			c1.104,0.718,9.04,4.613,13.639,5.637C131.794,197.325,131.214,200.675,130.792,203.997z M143.025,276.752
			c-3.099,0.268-2.304-5.075-1.848-6.59c0.255-0.85,0.584-1.695,0.965-2.521c-0.108,1.339,0.851,2.489,2.259,2.968
			c1.174,0.398,3.076,0.183,4.156-0.722C147.837,272.685,145.95,276.502,143.025,276.752z M142.284,224.883
			c1.752,4.314,4.159,12.865,4.782,17.006c0.529,3.506,0.915,7.033,1.206,10.567c0.24,2.937-0.262,6.109,0.726,8.922
			c-0.103-0.094-0.773,0.148-0.753,0.294c0.02,0.146,0.516,0.228,0.539,0.371c0.357,2.315,0.403,4.433,0.002,6.789
			c-0.913,1.473-2.844,1.738-4.419,1.242c-1.599-0.506-1.964-1.853-1.799-3.307c0.821-1.583,1.844-3.071,3.017-4.337
			c0.112-0.123,0.067-0.248-0.029-0.307c0.001-0.005,0.006-0.007,0.008-0.011c0.517-2.565-0.116-5.144-0.683-7.653
			c-0.848-3.751-1.649-7.515-2.452-11.274c-0.701-3.282-2.49-11.701-2.852-13.244c-0.189-0.397-1.621-2.756-0.973-5.105
			c0.221-1.657-0.495-11.591-1.035-20.037c1.78,1.505,5.704,1.441,7.098-0.321c-0.362,1.435-0.716,2.872-1.061,4.307
			C142.961,211.476,141.824,219.426,142.284,224.883z M144.752,204.148c-0.039-0.041-0.1-0.059-0.177-0.015
			c-2.31,1.304-4.767,1.656-7.036,0.212c-0.241-3.782-0.442-7.227-0.5-9.437c3.741,0.225,7.342-0.733,10.788-2.15
			C146.743,196.531,145.718,200.336,144.752,204.148z M137.532,194.129c-6.018-0.075-11.914-2.798-17.033-5.721
			c-4.602-2.627-13.23-8.561-14.072-14.41c2.134-0.819,3.171-1.773,4.762-3.102c3.354,8.995,15.047,16.726,24.58,14.478
			c0.056-0.012,0.114-0.052,0.164-0.104c0.22,0.891,0.509,1.757,0.908,2.57c-1.125,0.072-2.938,1.842-3.812,3.205
			c-0.628,0.979,0.664,1.888,2.558,1.197c2.067-0.757,4.527,0.032,8.756-0.551c1.819-0.249,4.316-0.499,5.533-2.076
			c0.857-0.017,2.171,0.127,2.999,0.283C148.188,192.275,142.914,194.198,137.532,194.129z M136.945,188.05
			c0.313,0.6,1.417,1.903,1.431,1.698c3.286,1.394,7.243,0.087,10.857-0.107c-2.239,2.124-7.189,1.791-9.94,1.938
			c-1.541,0.081-1.82-0.138-3.071,0.162c-1.251,0.299-2.998,0.752-2.334-0.855C134.439,189.553,135.717,188.699,136.945,188.05z
			 M157.401,188.44c0.399,0.897-1.018,1.061-2.701,0.982c-1.842-0.036-4.14-0.471-4.47-0.48c-3.991-0.11-7.745,1.182-11.742,0.386
			c-2.97-4.347-3.093-10.651-4.237-15.681c-1.474-6.481-3.516-19.417-3.166-21.132c0.362-1.321-0.428-5.815-1.207-9.327
			c-1.017-4.582-2.268-9.105-3.808-13.539c-1.149-3.307-2.544-6.371-4.486-9.273c-2.067-3.089-4.522-6.08-5.051-9.831
			c1.711,0.29,3.343,0.939,4.938,1.944c2.95,1.859,3.99,4.669,5.245,7.728c0.127,0.312,0.584,3.129,1,4.578
			c0.792,2.754,1.546,5.513,2.326,8.271c0.961,3.397,1.928,6.786,2.686,10.234c0.778,3.54,0.894,7.273,1.403,9.014
			c1.021,5.731,1.789,13.225,2.313,19.024c0.257,2.848,0.555,5.688,0.942,8.521c0.262,1.915,0.629,3.556,1.776,5.133
			c0.141-0.068-0.952,0.887-0.205,0.53c2.072-0.753,4.922-1.484,7.192-1.548c1.909-0.051,3.37,0.496,3.99,0.661
			c0.315,0.084,0.911,0.202,1.488,0.383C153.874,185.603,156.51,186.438,157.401,188.44z M160.349,179.803
			c-1.921,2.342-2.675,4.808-4,6.318c-0.483-0.296-2.972-1.224-3.871-1.517c-0.211-0.068-0.422-0.134-0.631-0.196
			c0.376-1.13,0.675-2.289,0.915-3.464c0.666-0.509,1.215-1.476,1.729-2.091c0.781-0.939,1.943-2.54,2.253-3.059
			C156.973,176.133,159.025,178.615,160.349,179.803z M156.59,175.595c-0.604,0.946-3.185,4.408-3.667,4.503
			c0.606-3.395,0.753-6.911,0.839-10.313C154.296,171.829,155.322,173.806,156.59,175.595z M163.903,117.491
			c-1.447,3.021-2.906,5.977-4.199,9.069c-3.305,7.887-6.675,15.165-7.176,23.775c-0.002,0.035,0.636,11.041,0.634,16.317
			c-0.001,6.021-0.715,11.736-1.889,17.59c-1.043-0.291-2.846-0.581-3.875-0.715c3.812-1.957,1.76-11.316,1.505-15.502
			c-0.234-3.864-0.397-16.378,1.172-19.672c0.028-2.485,1.431-7.462,2.845-10.69c1.462-3.34,2.998-6.648,4.412-10.01
			c1.255-2.985,1.863-10.439,3.201-13.729c1.545-2.164,3.698-3.758,6.158-4.868C166.823,111.959,165.111,114.971,163.903,117.491z
			 M173.969,106.816c0.006,0.034,0.021,0.055,0.037,0.079c-4.826,0.166-11.308,2.521-14.346,6.861
			c-0.438,1.487-1.352,3.5-1.389,7.426c-0.055-0.955-0.452-4.649-0.594-5.685c-0.378-2.744-0.353-5.66-1.981-7.999
			c2.772-1.251,5.488-2.617,8.055-4.238c0.79-0.499,1.551-1.022,2.301-1.556C169.144,102.228,173.269,103.308,173.969,106.816z
			 M191.254,78.129c-0.364,2.482-2.032,4.647-3.66,6.449c-3.056,3.377-7.656,5.894-11.805,7.703c0.174-0.229,0.35-0.452,0.521-0.686
			c2.059-2.825,3.862-5.852,5.634-8.89c0.319-0.035,0.618-0.237,0.907-0.37c0.613-0.282,1.213-0.603,1.789-0.952
			c0.977-0.593,1.735-1.349,2.021-2.475c0.172-0.677-0.062-1.304-0.759-1.481c-0.197-0.048-0.637-0.086-0.882,0.053
			c0.041-0.067,0.08-0.137,0.123-0.204c0.021-0.039-0.039-0.056-0.06-0.025c-3.111,4.233-5.525,8.937-8.479,13.28
			c-2.928,4.307-6.591,7.88-10.808,10.861c-0.578,0.422-1.047,0.73-1.422,0.976c-4.645,3.049-9.855,5.188-14.98,7.278
			c-2.988,1.217-8.071,4.807-13.841,2.557c-5.287-1.98-9.328-3.729-13.839-5.875c-4.084-1.749-9.18-4.919-12.595-7.667
			c-3.021-2.268-5.788-4.825-8.145-7.662c0.017-0.036,0.019-0.075-0.021-0.098c-0.04-0.022-0.079-0.044-0.119-0.067
			c-4.131-5.028-6.959-10.938-7.533-17.733c-0.009-0.101-0.156-0.043-0.156,0.038c-0.002,0.162,0.003,0.322,0.005,0.483
			c-3.382-0.759-1.368,5.659,1.066,6.689c1.089,3.516,2.941,6.772,5.221,9.733c-3.106-1.818-5.911-3.929-8.34-6.675
			c-1.503-1.7-2.635-3.682-3.368-5.826c-0.459-1.345-0.673-4.618,0.227-6.74c1.066-0.489,2.047-1.139,2.953-1.915
			c0.297,0.038,0.899,0.302,1.242,0.426c0.117,0.043,0.087-1.357,0.06-1.671c3.226-3.43,5.42-8.336,7.239-12.132
			c3.741-7.813,6.726-16.126,11.631-23.322c4.365-6.401,10.451-10.097,18.147-7.158c0.098,0.038,0.204-0.127,0.092-0.177
			c-15.574-6.797-23.427,15.253-28.196,25.801c-2.343,5.182-4.841,11.76-8.977,16.235c-0.282-3.656-0.329-6.978-0.179-9.992
			c3.756-4.455,5.91-10.618,8.226-15.659c4.767-10.381,15.804-20.764,28.056-17.443c0.145,0.039,0.31-0.208,0.135-0.261
			c-8.55-2.606-16.426,2.101-22.271,8.069c-4.532,4.627-6.671,10.334-9.398,16.083c-1.158,2.444-2.681,5.718-4.696,8.397
			c0.89-14.35,6.162-21.66,10.134-25.82c9.68-10.143,24.765-13.921,38.346-12.732c12.861,1.126,25.146,6.732,34.718,15.545
			c1.201,1.106,2.759,3.426,4.33,6.521c-7.045,1.736-12.415-2.239-16.404-7.56c-3.516-4.688-7.649-7.818-13.332-9.431
			c-5.039-1.43-10.951-1.025-15.181,2.25c-0.113,0.086-0.034,0.275,0.103,0.191c2.74-1.671,5.626-2.473,8.498-2.58
			c7.617-0.021,14.064,5.302,16.057,8.238c5.203,7.667,6.726,16.889,15.848,20.778c1.435,1.89,2.984,4.158,4.769,6.142
			c-1.687,2.994,2.004,6.557,4.007,8.28c0.791,0.681,1.64,1.314,2.526,1.898c-0.028,0.867-0.091,1.724-0.185,2.571
			c-0.26,0.055-0.429,0.508-0.093,0.478C190.349,70.478,191.748,74.753,191.254,78.129z M182.274,82.136
			c0.884-1.517,1.765-3.032,2.666-4.524c0.248-0.069,0.899,0.086,1.036,0.146c1.044,0.462-0.039,2.094-0.523,2.551
			c-0.651,0.617-1.492,1.032-2.287,1.427C182.905,81.864,182.569,81.979,182.274,82.136z M94,79.567
			c-0.687-0.664-1.25-1.464-1.691-2.3c-0.317-0.602-0.568-1.266-0.676-1.938c-0.181-1.126,0.545-1.494,1.518-1.585
			C93.186,75.752,93.483,77.694,94,79.567z"/>
		<g>
			<path fill="#9A8479" d="M182.16,72.778c0.114-0.028,0.194-0.231,0.028-0.239c-2.036-0.083-4.587,0.749-6.24,2.147
				c-0.012-0.053-0.074-0.089-0.143-0.039c-0.029,0.021-0.057,0.037-0.086,0.058c1.209-1.109,2.645-2.504,3.179-4.095
				c0.821-0.564,1.521-1.248,1.97-2.07c0.63-1.156,1.46-3.581,0.213-4.665c-1.176-1.022-3.339-0.762-3.937,0.777
				c-0.424,1.093,0.58,2.489,1.644,2.677c0.886,0.156,1.767-1.269,1.215-1.976c-0.547-0.7-1.604-0.242-1.798,0.473
				c-0.12,0.445,0.124,0.688,0.448,0.752c-0.042,0.038-0.085,0.076-0.126,0.113c-0.373-0.257-0.644-0.599-0.809-1.021
				c-0.829-1.732,2.646-2.5,3.367-0.75c0.759,1.837-0.687,3.796-2.012,4.971c0.02-0.133,0.032-0.268,0.037-0.404
				c0.004-0.13-0.173-0.05-0.2,0.024c-0.093,0.266-0.198,0.521-0.31,0.769c-2.563,1.969-7.854,3.297-10.933,1.773
				c-0.451-0.659-0.888-1.339-1.323-1.99c2.915,1.459,7.272-2.994,8.533-5.122c0.846-1.424,0.602-3.493-0.704-4.543
				c-1.168-0.938-3.106-0.085-3.502,1.233c-0.309,1.031,1.05,2.557,2.123,2.183c1.025-0.355,1.637-1.691,0.399-2.222
				c-0.809-0.345-1.721,0.531-1.052,1.283c0.111,0.126,0.249,0.17,0.391,0.172c-0.055,0.093-0.111,0.184-0.169,0.276
				c-0.332-0.103-0.607-0.289-0.828-0.561c-1.379-1.438,0.976-2.671,2.286-1.98c1.763,0.931,1.065,3.545,0.188,4.773
				c-1.523,2.133-5.223,5.488-8.027,3.986c-0.563-0.79-1.192-1.495-1.887-2.097c1.56-0.323,3.318-2.951,3.803-4.012
				c0.666-1.46,0.626-2.794-0.375-4.083c-1.014-1.303-3.508-1.86-4.601-0.317c-0.625,0.887-0.637,2.444,0.585,2.881
				c0.864,0.31,3.011-0.593,2.355-1.792c-0.107-0.194-0.316-0.339-0.555-0.423c-0.045-0.039-0.109-0.055-0.176-0.049
				c-0.535-0.114-1.129,0.07-1.065,0.664c0.081,0.778,0.662,0.767,1.089,0.436c0.005,0.446-1.104,0.987-1.738,0.447
				c-0.364-0.307-0.463-0.841-0.427-1.285c0.101-1.24,1.667-1.418,2.535-1.247c1.798,0.354,2.644,2.32,2.242,3.924
				c-0.334,1.35-2.364,4.754-4.108,4.5c-1.645-1.279-3.613-2.031-5.864-2.125c-7.749-0.322-13.438,8.718-13.82,15.537
				c-0.409,7.285,6.056,11.41,12.681,11.032c8.718-0.499,16.7-8.056,19.113-16.18c0.026-0.094,0-0.149-0.051-0.181
				c0.987-0.711,1.987-1.284,3.168-1.676C179.959,73.14,181.077,73.057,182.16,72.778z M173.914,72.59
				c1.341-0.271,2.933-0.77,4.305-1.551c-0.805,1.432-1.9,2.609-2.979,3.928c-0.018,0.02-0.02,0.042-0.016,0.059
				c-3.235,1.944-5.322,0.115-7.107-2.338C169.797,73.513,172.219,72.93,173.914,72.59z M154.331,91.087
				c-9.039-0.451-11.53-9.685-8.317-16.848c2.1-4.686,6.409-8.582,11.683-8.873c1.964-0.111,3.599,0.521,5.002,1.537
				c0.19,0.235,0.397,0.394,0.612,0.482c1.399,1.181,2.553,2.732,3.56,4.263c2.336,3.558,4.91,6.099,8.807,3.296
				c-0.111,0.105-0.223,0.212-0.324,0.324c-0.001,0.001-0.001,0.001-0.002,0.001c-0.032,0.037-0.072,0.068-0.104,0.104
				c-0.039,0.043-0.012,0.081,0.023,0.089C172.591,84.293,163.732,91.557,154.331,91.087z"/>
			<path fill="#9A8479" d="M135.419,80.502c-0.382-6.819-6.07-15.859-13.82-15.537c-2.252,0.093-4.22,0.845-5.863,2.125
				c-1.745,0.253-3.774-3.151-4.11-4.5c-0.399-1.604,0.446-3.571,2.243-3.924c0.87-0.171,2.436,0.007,2.536,1.247
				c0.036,0.444-0.063,0.978-0.427,1.285c-0.634,0.54-1.743-0.001-1.738-0.447c0.429,0.331,1.009,0.342,1.09-0.436
				c0.061-0.594-0.531-0.778-1.066-0.664c-0.067-0.006-0.131,0.01-0.175,0.049c-0.238,0.084-0.448,0.229-0.556,0.423
				c-0.654,1.199,1.49,2.103,2.355,1.792c1.223-0.438,1.21-1.995,0.584-2.881c-1.092-1.543-3.584-0.986-4.6,0.317
				c-1.002,1.289-1.04,2.623-0.374,4.083c0.484,1.061,2.243,3.688,3.803,4.012c-0.694,0.603-1.324,1.307-1.888,2.097
				c-2.804,1.502-6.504-1.854-8.027-3.986c-0.878-1.228-1.573-3.842,0.189-4.773c1.311-0.691,3.665,0.542,2.285,1.98
				c-0.22,0.272-0.496,0.458-0.828,0.561c-0.057-0.092-0.113-0.183-0.169-0.276c0.142-0.001,0.28-0.046,0.392-0.172
				c0.668-0.752-0.242-1.628-1.052-1.283c-1.238,0.531-0.627,1.866,0.399,2.222c1.074,0.375,2.431-1.151,2.124-2.183
				c-0.396-1.318-2.335-2.171-3.503-1.233c-1.307,1.05-1.551,3.119-0.706,4.543c1.262,2.127,5.62,6.581,8.533,5.122
				c-0.436,0.651-0.871,1.332-1.322,1.99c-3.079,1.524-8.37,0.196-10.932-1.773c-0.112-0.248-0.217-0.503-0.311-0.769
				c-0.026-0.075-0.204-0.155-0.2-0.024c0.005,0.136,0.018,0.271,0.038,0.404c-1.325-1.175-2.771-3.134-2.012-4.971
				c0.721-1.749,4.198-0.981,3.368,0.75c-0.165,0.423-0.436,0.764-0.809,1.021c-0.042-0.037-0.083-0.075-0.127-0.113
				c0.326-0.064,0.568-0.308,0.45-0.752c-0.193-0.714-1.251-1.172-1.798-0.473c-0.551,0.707,0.331,2.131,1.214,1.976
				c1.064-0.188,2.069-1.584,1.645-2.677c-0.597-1.539-2.761-1.799-3.936-0.777c-1.247,1.083-0.418,3.508,0.213,4.665
				c0.448,0.822,1.148,1.506,1.969,2.07c0.533,1.591,1.968,2.986,3.178,4.095c-0.029-0.021-0.056-0.037-0.085-0.058
				c-0.07-0.05-0.131-0.014-0.144,0.039c-1.654-1.399-4.203-2.231-6.24-2.147c-0.167,0.008-0.087,0.21,0.028,0.239
				c1.084,0.279,2.202,0.362,3.271,0.719c1.182,0.393,2.181,0.965,3.167,1.676c-0.05,0.031-0.077,0.087-0.049,0.181
				c2.412,8.124,10.395,15.681,19.114,16.18C129.363,91.912,135.828,87.787,135.419,80.502z M104.157,74.966
				c-1.08-1.319-2.174-2.496-2.979-3.928c1.371,0.782,2.963,1.281,4.305,1.551c1.694,0.34,4.116,0.923,5.796,0.098
				c-1.785,2.453-3.871,4.282-7.107,2.338C104.177,75.008,104.174,74.986,104.157,74.966z M104.126,75.463
				c0.038-0.009,0.061-0.046,0.024-0.089c-0.031-0.037-0.072-0.067-0.104-0.104c0,0-0.001,0-0.002-0.001
				c-0.101-0.112-0.212-0.218-0.325-0.324c3.897,2.803,6.472,0.262,8.808-3.296c1.006-1.531,2.16-3.082,3.56-4.263
				c0.216-0.088,0.422-0.247,0.612-0.482c1.402-1.016,3.039-1.647,5.001-1.537c5.273,0.292,9.584,4.188,11.685,8.873
				c3.211,7.163,0.721,16.396-8.319,16.848C115.664,91.557,106.807,84.293,104.126,75.463z"/>
			<circle fill="#9A8479" cx="154.056" cy="71.737" r="2.871"/>
			<path fill="#9A8479" d="M160.722,94.854c0.2,0.139,0.469,0.302,0.555,0.539c0.079,0.212-0.226,0.429-0.409,0.32
				c-0.212-0.127-0.373-0.344-0.583-0.485c-0.24-0.165-0.479-0.321-0.74-0.448c-0.214-0.103,0.066-0.44,0.251-0.375
				C160.117,94.52,160.44,94.66,160.722,94.854z M163.215,93.48c-0.042,0.053-0.055,0.159,0.031,0.177
				c0.226,0.047,0.429,0.067,0.635,0.183c0.274,0.154,0.475,0.396,0.676,0.631c0.205,0.239,0.677-0.127,0.479-0.374
				C164.708,93.685,163.707,92.849,163.215,93.48z M167.102,92.004c-0.052,0.04-0.034,0.1,0.015,0.106
				c0.013,0.056,0.04,0.096,0.1,0.118c0.294,0.1,0.592,0.184,0.885,0.28c0.29,0.097,0.627,0.298,0.938,0.271
				c0.156-0.015,0.392-0.206,0.255-0.378c-0.241-0.305-0.875-0.364-1.23-0.453C167.697,91.859,167.405,91.77,167.102,92.004z"/>
			<circle fill="#9A8479" cx="125.341" cy="71.738" r="2.871"/>
			<path fill="#9A8479" d="M119.852,94.78c-0.261,0.127-0.5,0.283-0.741,0.448c-0.208,0.141-0.37,0.358-0.583,0.485
				c-0.183,0.109-0.485-0.107-0.409-0.32c0.086-0.237,0.356-0.4,0.556-0.539c0.28-0.194,0.604-0.335,0.927-0.449
				C119.788,94.34,120.067,94.677,119.852,94.78z M114.36,94.097c-0.197,0.247,0.274,0.613,0.479,0.374
				c0.203-0.234,0.402-0.477,0.677-0.631c0.205-0.116,0.408-0.136,0.633-0.183c0.088-0.018,0.074-0.124,0.032-0.177
				C115.688,92.849,114.688,93.685,114.36,94.097z M111.334,91.949c-0.356,0.088-0.991,0.147-1.233,0.453
				c-0.136,0.172,0.1,0.363,0.256,0.378c0.313,0.028,0.649-0.173,0.938-0.271c0.294-0.097,0.591-0.181,0.885-0.28
				c0.06-0.022,0.087-0.062,0.099-0.118c0.049-0.007,0.067-0.066,0.016-0.106C111.992,91.77,111.699,91.859,111.334,91.949z"/>
			<path fill="#9A8479" d="M135.576,93.92c0.18-0.12,0.358-0.227,0.536-0.326c0.254-0.114,0.534-0.249,0.833-0.396
				c1.902-0.742,3.732-0.399,5.928-0.061c0.188,0.029,0.441-0.14,0.371-0.356c-0.789-2.431-4.538-1.216-6.688,0.059
				c-0.416,0.191-0.829,0.433-1.243,0.745C135.035,93.793,135.295,94.109,135.576,93.92z M142.554,92.577
				c-1.252-0.199-2.432-0.374-3.576-0.315C140.448,91.682,141.897,91.425,142.554,92.577z"/>
			<path fill="#9A8479" d="M135.341,106.354c0.262-0.055,0.478-0.176,0.693-0.331c0.044-0.031,0.092-0.068,0.139-0.103
				c2.196,2.866,8.641,2.272,10.522-0.77c0.212,0.167,0.448,0.307,0.75,0.428c0.223,0.091,0.538-0.295,0.3-0.445
				c-0.282-0.156-0.529-0.355-0.759-0.576c-0.111-0.168-0.111-0.514-0.55-0.555c-0.233-0.095-0.583,0.266-0.403,0.48
				c0.111,0.135,0.221,0.257,0.328,0.368c-0.058,0.544-1.589,1.492-1.947,1.66c-0.938,0.443-2.057,0.529-3.073,0.552
				c-1.772,0.04-3.406-0.455-4.856-1.414c0.078-0.081,0.149-0.167,0.197-0.258c0.082-0.158-0.079-0.288-0.228-0.209
				c-0.121,0.064-0.388,0.622-1.164,0.869C135.118,106.118,135.127,106.398,135.341,106.354z"/>
		</g>
		<g>
			<path fill="#9A8479" d="M148.55,207.073c-0.281-0.75-1.065-0.973-1.799-1.017c-0.373-0.022-1.318-0.037-1.636,0.292
				c-0.168-0.111-0.494-0.133-0.599-0.028c-0.544-0.077-0.628,0.307-0.654,0.379c-0.958,0.362-1.226,1.297-1.137,2.025
				c0.047,0.383,0.286,0.732,0.709,0.543c0.262-0.117,0.444-0.392,0.598-0.623c0.131-0.2,0.243-0.415,0.35-0.631
				c0.078-0.159,0.175-0.336,0.228-0.519c0.01-0.001,0.019,0.002,0.027,0.001c-0.558,1.573-0.321,3.996,1.378,4.806
				c0.098,0.046,0.28-0.054,0.227-0.178c-0.29-0.687-0.901-1.184-1.243-1.861c-0.438-0.867-0.422-1.868-0.254-2.801
				c0.07-0.021,0.138-0.04,0.203-0.077c0.06,0.986-0.01,2.104,0.541,2.965c0.33,0.515,1.324,1.057,1.91,1.069
				c0.117,0.002,0.213-0.126,0.155-0.23c-0.311-0.574-1.231-0.624-1.661-1.154c-0.624-0.763-0.374-1.903-0.814-2.747
				c0.106-0.088,0.199-0.188,0.251-0.303c0.999,0.287,2.052,0.826,3.069,0.373C148.496,207.315,148.592,207.185,148.55,207.073z
				 M144.61,206.484c0.166-0.039,0.377,0.135,0.392,0.372c0.011,0.175-0.263,0.433-0.55,0.364c-0.29-0.068-0.313-0.249-0.312-0.488
				C144.141,206.494,144.446,206.521,144.61,206.484z M143.343,209.006c-0.342,0.038-0.613-1.113-0.046-1.742
				c0.132-0.146,0.31-0.264,0.543-0.331c0.039,0.199,0.193,0.394,0.378,0.496C144.183,208.009,143.767,208.958,143.343,209.006z
				 M145.319,206.573c-0.029-0.056-0.066-0.108-0.113-0.15c0.089-0.008,0.178-0.026,0.256-0.04c0.31-0.057,0.629-0.055,0.938-0.038
				c0.595,0.028,1.313,0.179,1.623,0.713C147.124,207.232,145.567,206.403,145.319,206.573z"/>
			<path fill="#9A8479" d="M123.753,206.941c-0.023-0.236-0.127-0.709-0.383-0.695c-0.031,0.002-0.181,0.033-0.206,0.058
				c-0.169-0.069-0.235-0.121-0.402-0.091c-0.29,0.049-0.38,0.203-0.426,0.449c-0.848,0.05-2.255,1.077-2.185,2.233
				c0.006,0.086,0.069,0.137,0.153,0.14c0.646,0.024,1.238-0.295,1.76-0.646c0.188-0.123,0.43-0.297,0.641-0.498
				c-0.23,0.651-0.32,1.365-0.479,2.028c-0.102,0.427-0.229,0.852-0.455,1.231c-0.302,0.512-0.637,0.098-1.054,0.063
				c-0.055-0.005-0.097,0.055-0.088,0.104c0.067,0.387,0.532,0.522,0.877,0.447c0.378-0.084,0.608-0.494,0.749-0.814
				c0.372-0.852,0.497-2.304,0.619-3.21c-0.008,0.678,0.021,2.058,0.023,2.565c0.001,0.409-0.014,0.854-0.169,1.239
				c-0.169,0.42-0.552,0.259-0.88,0.401c-0.066,0.029-0.118,0.118-0.072,0.186c0.505,0.727,1.345-0.424,1.45-0.879
				c0.106-0.458-0.062-1.949-0.133-2.618c0.118,0.4,0.358,1.585,1.077,1.686c0.511,0.072,0.585-0.577,0.606-1.003
				C124.801,208.902,124.709,207.559,123.753,206.941z M123.301,206.525c0.102,0.048,0.299,0.342,0.114,0.598
				c-0.076,0.103-0.49,0.258-0.664,0.044c-0.175-0.216-0.129-0.32-0.076-0.554C122.729,206.379,123.199,206.479,123.301,206.525z
				 M121.963,208.018c-0.396,0.311-1.054,0.639-1.401,0.623c-0.349-0.015,0.36-1.549,1.771-1.862
				c-0.008,0.213,0.102,0.461,0.284,0.592C122.523,207.528,122.175,207.853,121.963,208.018z M123.005,207.588
				c0.034,0.002,0.144-0.054,0.179-0.059c-0.033,0.096-0.11,0.693-0.119,0.799C123.042,208.236,122.995,207.604,123.005,207.588z
				 M124.43,209.713c-0.036,0.175-0.261,0.418-0.454,0.218c-0.581-0.608-0.822-1.702-0.633-2.389c0.1-0.048,0.201-0.298,0.27-0.372
				C124.62,207.76,124.504,209.356,124.43,209.713z"/>
		</g>
		<g>
			<path fill="#9A8479" d="M110.829,51.288c-2.633-1.151-6.317,0.899-7.743,2.687c-0.123,0.154-0.012,0.311,0.154,0.196
				c0.526-0.363,1.943-1.555,3.562-2.127c1.474-0.521,2.844-0.53,3.884-0.479C110.784,51.569,110.99,51.359,110.829,51.288z"/>
			<path fill="#9A8479" d="M169.532,54.719c-1.794-0.694-3.661-0.586-5.36,0.152c-0.315,0.136-0.204,0.597,0.147,0.445
				c1.237-0.534,3.625-0.656,5.956,0.412c1.808,0.828,3.223,2.029,3.804,2.123c0.15,0.024,0.36,0,0.233-0.186
				C173.732,56.91,171.509,55.482,169.532,54.719z"/>
		</g>
	</g>
	<g>
		<path opacity="0.1" fill="#221F1F" d="M108.842,29.342c-3.734,3.328-6.747,7.608-8.704,11.872
			c-0.501,1.091-0.985,2.213-1.498,3.401c-0.538,1.246-1.083,2.504-1.654,3.749c5.031,0.304,7.061-6.688,7.633-10.53
			c0,0,1.293-1.4,2.694-3.448c0,0,1.375-0.396,2.438-0.996c0.042-0.064,0.086-0.128,0.128-0.192
			C109.804,32.795,109.494,31.232,108.842,29.342z"/>
		<path opacity="0.1" fill="#221F1F" d="M96.651,47.979l0.124-0.262c0.448-0.942,0.878-1.884,1.307-2.82
			c2.209-4.826,4.297-9.385,8.078-13.244c0.787-0.804,1.669-1.638,2.628-2.458c-0.387-1.101-0.889-2.296-1.526-3.428
			c-1.87,1.344-3.6,2.828-5.153,4.456c-3.963,4.152-6.748,9.145-8.411,15.1C93.817,47.384,96.404,48.502,96.651,47.979z"/>
	</g>
	<g>
		<g>
			<path fill="#F37A60" d="M92.699,42.632c-0.087,0-0.175-0.003-0.265-0.009l-0.047-0.003l-0.02-0.043
				c-0.062-0.133-0.122-0.267-0.173-0.401c-0.266-0.684,0.067-3.165,0.85-4.309c0.262-0.383,0.55-0.578,0.856-0.578
				c0.238,0,0.481,0.12,0.723,0.357c0.89,0.873,0.608,2.675,0.221,3.607C94.465,42.168,93.742,42.632,92.699,42.632z"/>
			<path fill="#F37A60" d="M96.883,45.517c-0.521,0-1.092-0.079-1.697-0.234c-1.321-0.34-2.148-1.433-2.609-2.291l-0.059-0.108
				l0.124-0.009c1.77-0.134,2.834-1.241,2.919-3.037c0.039-0.806-0.105-1.945-0.636-2.502c-0.218-0.229-0.489-0.345-0.803-0.345
				c-0.1,0-0.205,0.011-0.315,0.034c-0.613,0.128-1.121,0.516-1.507,1.152c-0.757,1.25-0.823,3.075-0.497,4.233l0.037,0.13
				l-0.131-0.031c-1.305-0.303-2.39-1.025-2.691-1.239c-2.285-1.619-1.086-4.605-0.665-5.481c1.521-3.163,5.032-5.458,8.346-5.458
				c0.655,0,1.295,0.088,1.903,0.262l0.062,0.018l-0.004,0.065c-0.153,2.191,2.04,3.821,4.157,4.076l0.093,0.01l-0.026,0.09
				c-0.221,0.783-0.396,1.707-0.579,2.686C101.636,41.093,100.804,45.517,96.883,45.517z"/>
			<path fill="#F37A60" d="M103.149,34.49l-0.016,0.005l-0.1-0.016c-1.787-0.147-3.801-1.471-4.08-3.43
				c-0.167-1.176,0.423-2.477,1.58-3.482c0.649-0.563,1.318-0.826,2.106-0.826c0.374,0,0.773,0.057,1.258,0.182l0.12,0.03
				l-0.077,0.097c-0.041,0.05-0.051,0.11-0.039,0.137l0.065,0.106l0.07-0.079c0.198,0,0.39-0.01,0.578-0.02
				c0.184-0.009,0.363-0.018,0.541-0.018c0.42,0,0.92,0.045,1.438,0.382c0.756,0.492,0.937,1.475,0.976,2.016
				c0.134,1.815-0.955,3.732-2.59,4.558c-0.477,0.242-1.015,0.365-1.599,0.365C103.304,34.497,103.227,34.495,103.149,34.49z"/>
			<path fill="#F37A60" d="M112.539,32.906c-1.542,0-3.146-0.305-4.562-0.574l-0.687-0.129l0.047-0.095
				c0.365-0.735,0.58-1.532,0.622-2.309c0.046-0.847-0.23-1.632-0.779-2.212c-0.517-0.545-1.212-0.845-1.961-0.845
				c-0.202,0-0.408,0.021-0.611,0.066l-0.111,0.023l0.015-0.113c-0.114-2.835,1.226-7.402,3.604-9.885
				c1.157-1.208,2.432-1.82,3.79-1.82c0.217,0,0.436,0.016,0.661,0.048c1.228,0.179,2.142,0.746,2.715,1.685
				c0.781,1.279,0.851,3.204,0.185,5.147l-0.024,0.072l-0.073-0.02c-0.587-0.166-1.181-0.249-1.764-0.249
				c-2.035,0-4.313,1.097-4.605,4.177c-0.004,0.042,0.04,0.082,0.085,0.096c0.539,0.173,1.079,0.261,1.607,0.261
				c2.123,0,4.051-1.436,5.035-3.746l0.031-0.073l0.073,0.031c0.949,0.398,1.815,1.007,2.505,1.761
				c0.897,0.979,1.251,2.204,1.025,3.541c-0.293,1.73-1.586,3.485-3.22,4.364C115.148,32.646,113.969,32.906,112.539,32.906z"/>
			<path fill="#F37A60" d="M110.853,26.03c-0.537,0-0.937-0.142-1.155-0.409c-0.19-0.235-0.245-0.561-0.16-0.967
				c0.31-1.497,1.646-2.497,3.573-2.673c0.151-0.014,0.302-0.021,0.452-0.021c0.552,0,1.121,0.09,1.69,0.267l0.083,0.026
				l-0.033,0.081c-0.595,1.476-1.527,2.655-2.559,3.234C112.347,25.792,111.549,26.03,110.853,26.03z"/>
		</g>
		<path fill="#9A8479" d="M119.274,24.723c-0.764-1.252-1.972-2.16-3.297-2.659c0.715-2.04,0.563-4.41-0.873-6.152
			c-1.767-2.142-5.117-1.555-6.842,0.244c-2.516,2.623-4.356,6.978-4.196,10.66c0,0.009,0.004,0.013,0.005,0.021
			c-0.843-0.609-2.143-0.334-3.001,0.094c-1.213,0.605-2.079,1.859-2.399,3.148c-0.031,0.129-0.045,0.253-0.061,0.378
			c-4.771-2.03-11.181,3.415-11.367,8.184c-0.095,2.424,2.388,4.139,4.678,4.312c0.02,0.042,0.037,0.089,0.06,0.128
			c1.646,3.027,5.035,3.713,7.788,1.696c2.525-1.852,3.768-6.822,3.473-9.91c0.35,0.012,0.694-0.014,1.023-0.083
			c1.309-0.27,2.336-1.199,2.989-2.351c3.385,0.985,7.286,1.342,10.292-0.784C119.54,30.238,120.599,26.892,119.274,24.723z
			 M92.27,42.146c-0.392-1.007,0.594-6.119,2.298-4.444c0.849,0.833,0.602,2.561,0.204,3.519c-0.448,1.078-1.346,1.394-2.332,1.322
			C92.38,42.412,92.32,42.278,92.27,42.146z M95.206,45.205c-1.17-0.3-2.006-1.223-2.559-2.251c1.569-0.119,2.895-1.054,2.993-3.112
			c0.056-1.157-0.25-3.229-1.849-2.895c-2.051,0.429-2.59,3.617-2.064,5.485c-1.003-0.233-2.01-0.763-2.663-1.227
			c-1.831-1.298-1.476-3.644-0.64-5.381c1.728-3.59,6.227-6.282,10.155-5.154c-0.157,2.247,2.053,3.9,4.228,4.161
			C101.647,38.923,101.791,46.894,95.206,45.205z M104.944,34.061c-0.55,0.279-1.168,0.385-1.791,0.35
			c-0.032-0.022-0.072-0.024-0.113-0.011c-1.867-0.154-3.75-1.551-4.007-3.361c-0.186-1.31,0.607-2.589,1.553-3.41
			c1.061-0.923,2.097-0.933,3.292-0.628c-0.089,0.111-0.097,0.291,0.089,0.293c0.933,0.012,1.74-0.217,2.583,0.332
			c0.646,0.419,0.887,1.232,0.94,1.955C107.622,31.369,106.53,33.26,104.944,34.061z M116.104,32.041
			c-2.59,1.395-5.98,0.608-8.695,0.103c0.369-0.741,0.588-1.555,0.631-2.339c0.11-2.008-1.566-3.482-3.449-3.074
			c0.002-0.013,0.009-0.026,0.008-0.042c-0.181-4.161,2.847-12.287,7.956-11.545c3.342,0.485,3.811,3.879,2.835,6.727
			c-2.898-0.811-6.118,0.3-6.469,3.999c-0.008,0.087,0.065,0.156,0.14,0.18c3.074,0.988,5.63-0.921,6.74-3.53
			c0.946,0.397,1.808,1.009,2.477,1.741C120.627,26.825,118.75,30.616,116.104,32.041z M115.229,22.304
			c-0.559,1.388-1.458,2.595-2.524,3.194c-0.838,0.473-3.468,0.999-3.09-0.828c0.352-1.7,1.945-2.468,3.502-2.609
			C113.83,21.996,114.545,22.091,115.229,22.304z"/>
	</g>
	<g>
		<path opacity="0.1" fill="#221F1F" d="M137.039,194.909c0.004,0.146,0.01,0.311,0.016,0.47c3.37,0.095,6.904-0.174,10.33-1.032
			c0.147-0.528,0.291-1.061,0.442-1.588C144.381,194.176,140.78,195.134,137.039,194.909z"/>
		<path opacity="0.1" fill="#221F1F" d="M120.125,191.814c2.268,1.081,6.958,2.572,12.553,3.237c0.085-0.248,0.169-0.5,0.262-0.743
			c-4.6-1.023-12.536-4.919-13.639-5.637C119.482,189.406,119.776,190.515,120.125,191.814z"/>
		<path opacity="0.1" fill="#221F1F" d="M149.395,109.646c-2.988,1.217-8.071,4.807-13.841,2.557
			c-5.287-1.98-9.328-3.729-13.839-5.875c-1.159-0.497-2.401-1.109-3.662-1.793c-0.294-0.16-0.222,0.294-1.535,0.871
			c2.993,1.083,9.306,3.816,16.3,7.121c7.735,5.089,12.793,1.793,16.254-0.854c1.628-1.424,10.382-4.682,14.68-8.413
			c0,0-0.236-0.03-0.67-0.083C158.77,105.802,154.049,107.748,149.395,109.646z"/>
		<g>
			<path opacity="0.1" fill="#221F1F" d="M178.354,57.817c-0.602-0.33-1.154-0.663-1.685-0.999
				c-0.777,2.853,1.489,6.381,3.838,8.878C179.094,63.617,178.089,60.946,178.354,57.817z"/>
		</g>
		<path opacity="0.1" fill="#221F1F" d="M117.29,113.308c4.715,0.359,8.152,4.694,9.543,7.871c0,0,0.004-0.163,0.007-0.449
			c-0.054-0.258-0.097-0.446-0.124-0.512c-1.254-3.059-2.294-5.869-5.245-7.728c-1.595-1.005-3.227-1.654-4.938-1.944
			C116.67,111.513,116.936,112.428,117.29,113.308z"/>
		<path opacity="0.1" fill="#221F1F" d="M160.533,113.924c-0.911,2.239-1.484,6.405-2.151,9.78c0.666-2.434,1.877-7.684,2.171-8.626
			c0.435-1.083,4.289-3.395,6.036-4.402c0.087-0.541,0.127-1.082,0.103-1.62C164.231,110.166,162.078,111.761,160.533,113.924z"/>
		<path opacity="0.25" fill="#FFFFFF" d="M101.051,29.454c1.64,1.278,5.475,0.623,4.688-0.951
			C104.952,26.929,100.724,26.272,101.051,29.454z"/>
		<path opacity="0.1" fill="#221F1F" d="M107.49,29.584c-0.209,2.294-3.782,4.172-6.177,3.214c-2.398-0.959-2.173-2.792-1.73-3.995
			c-0.417,0.672-0.663,1.447-0.55,2.235c0.257,1.81,2.141,3.207,4.007,3.361c0.042-0.014,0.082-0.012,0.113,0.011
			c0.623,0.035,1.241-0.071,1.791-0.35C106.528,33.26,107.62,31.372,107.49,29.584z"/>
		<path opacity="0.25" fill="#FFFFFF" d="M97.685,31.175c-2.18-0.122-8.96,1.009-9.324,6.337s1.372,1.251,2.381-0.768
			C91.752,34.727,95.263,31.376,97.685,31.175z"/>
		<path opacity="0.25" fill="#FFFFFF" d="M105.315,24.958c0.685-2.785,4.374-12.104,7.587-8.355c0.968,1.13,1.372,2.139-0.565,1.008
			C110.4,16.482,107.282,20.354,105.315,24.958z"/>
		<path opacity="0.1" fill="#221F1F" d="M98.579,30.67c-0.06-0.018-0.122-0.026-0.182-0.041c-0.198,1.949,1.073,5.048,2.698,5.65
			c0.445,3.788-1.503,8.667-5.174,9.072c5.858,0.939,5.77-6.584,6.886-10.521C100.632,34.57,98.422,32.917,98.579,30.67z"/>
		<path opacity="0.1" fill="#221F1F" d="M118.278,24.26c-0.669-0.732-1.531-1.344-2.477-1.741c-0.403,0.947-0.999,1.799-1.738,2.457
			c0.958-0.367,1.657-0.895,1.657-0.895c1.93,1.868,3.423,6.348-3.174,8.651c0.077,0.033,0.15,0.058,0.226,0.09
			c1.174-0.025,2.314-0.234,3.332-0.781C118.75,30.616,120.627,26.825,118.278,24.26z"/>
		<path opacity="0.25" fill="#FFFFFF" d="M109.6,25.187c0.201,1.19,2.36,0.732,3.106,0.312c1.056-0.592,1.945-1.782,2.505-3.151
			C114.363,23.573,111.218,25.014,109.6,25.187z"/>
		<path opacity="0.25" fill="#FFFFFF" d="M94.772,41.221c0.245-0.59,0.431-1.472,0.34-2.257c-0.061-0.23-0.129-0.461-0.216-0.688
			c0,1.552-1.458,3.3-2.571,4c0.038,0.089,0.074,0.178,0.116,0.268C93.426,42.614,94.324,42.298,94.772,41.221z"/>
		<path opacity="0.25" fill="#FFFFFF" d="M94.582,37.002c0.911,0.384,1.102,1.908,1.058,2.839c-0.087,1.829-1.146,2.768-2.48,3.038
			c-0.042,0.088-0.078,0.173-0.122,0.265C97.909,41.69,96.678,37.015,94.582,37.002z"/>
		<g>
			<path opacity="0.1" fill="#221F1F" d="M118.68,23.769c-0.097,0.084-0.201,0.165-0.291,0.254c0.145-0.112,0.32-0.215,0.507-0.312
				C118.824,23.729,118.752,23.749,118.68,23.769z"/>
		</g>
		<path opacity="0.25" fill="#FFFFFF" d="M173.969,106.816c-0.7-3.509-4.825-4.589-7.917-5.113c-0.663,0.472-1.34,0.934-2.033,1.379
			c2.557-0.578,7.599,2.721,5.764,3.638c-1.848,0.924-4.174,0.635-6.155,3.209c0.072,0.016,0.144,0.032,0.217,0.048
			c3.146-1.924,7.006-2.975,10.162-3.083C173.99,106.871,173.975,106.851,173.969,106.816z"/>
		<path opacity="0.25" fill="#FFFFFF" d="M116.302,108.322c-0.992-0.198-1.602-0.953-1.336-1.83
			c-0.285,0.206-0.552,0.414-0.794,0.615c-0.667,0.552-1.42,1.201-1.778,2.011c-0.24,0.546-0.091,0.83,0.047,1.175
			c0.002,0,0.003-0.003,0.005-0.004c6.073-1.839,13.417,2.828,14.614,9.016c0.064-0.01,0.132-0.019,0.196-0.03
			C124.491,109.491,117.365,108.535,116.302,108.322z"/>
		<path opacity="0.25" fill="#FFFFFF" d="M156.254,176.093c0.139-0.201,0.256-0.374,0.336-0.498
			c-0.645-0.91-1.229-1.872-1.715-2.862C155.261,173.85,155.754,175.023,156.254,176.093z"/>
		<path opacity="0.25" fill="#FFFFFF" d="M160.349,179.803c-1.323-1.188-3.376-3.67-3.604-4.008
			c-0.076,0.127-0.204,0.322-0.368,0.556c0.851,1.784,1.688,3.212,1.986,3.436c-0.057,1.705-1.184,4.599-1.797,6.053
			C157.758,184.316,158.538,182.011,160.349,179.803z"/>
		<path opacity="0.25" fill="#FFFFFF" d="M115.339,177.527c-1.827-2.021-3.273-4.281-4.149-6.631
			c-1.591,1.328-2.628,2.282-4.762,3.102c0.842,5.85,9.47,11.783,14.072,14.41c1.672,0.955,3.428,1.885,5.243,2.712
			C121.504,188.331,116.546,182.771,115.339,177.527z"/>
		<path opacity="0.25" fill="#FFFFFF" d="M117.213,169.948c11.777-11.912,11.917-23.018,9.975-34.474
			c-0.044-0.16-0.085-0.32-0.131-0.48c0.896,6.819-0.208,14.021-2.997,20.208c-1.866,4.136-4.324,8.074-7.532,11.313
			c-1.487,1.502-3.341,2.75-5.034,4.127c1.178,1.828,2.325,3.635,3.604,5.315C114.923,173.76,115.506,171.676,117.213,169.948z"/>
		<path opacity="0.1" fill="#221F1F" d="M139.293,191.579c-1.541,0.081-1.82-0.138-3.071,0.162
			c-1.251,0.299-2.998,0.752-2.334-0.855c0.552-1.333,1.829-2.187,3.058-2.836c-1.472-3.912-1.55-9.373-2.693-14.402
			c-1.474-6.481-3.516-19.417-3.166-21.132c0.362-1.321-0.428-5.815-1.207-9.327c-0.317-1.427-0.665-2.846-1.029-4.262
			c-0.235-0.129-0.474-0.135-0.712,0.013c0.974,2.832,2.158,10.682,1.714,12.016c-0.445,1.333,0.889,19.994,4.888,35.103
			c-8.147,5.035-4.888,6.518-3.407,6.664c1.481,0.148,12.857,0.737,15.7-1.184c0.469-0.316,0.611-0.609,0.525-0.882
			C145.059,191.645,141.481,191.461,139.293,191.579z"/>
		<path opacity="0.25" fill="#FFFFFF" d="M143.955,123.841c-1.007-0.347-2.96-0.441-2.866,0.724
			c0.094,1.166,0.913,0.819,1.323,0.315C142.821,124.377,143.955,123.841,143.955,123.841z"/>
		<path opacity="0.25" fill="#FFFFFF" d="M137.385,127.573c-1.25,0.61-3.296,4.013-1.835,6.353
			C136.561,135.495,134.567,130.842,137.385,127.573z"/>
		<path opacity="0.25" fill="#FFFFFF" d="M147.676,125.497c1.806,0.852,4.571,3.616,3.88,5.424
			C150.866,132.73,151.77,128.848,147.676,125.497z"/>
		<path opacity="0.25" fill="#FFFFFF" d="M128.195,206.452c-0.808,4.523-0.792,20.105-0.158,17.729
			C128.669,221.807,128.986,202.021,128.195,206.452z"/>
		<path opacity="0.25" fill="#FFFFFF" d="M139.117,207.719c0.159,4.274-0.316,15.987,0.475,15.197
			c0.792-0.792,0.792-15.354,0.792-15.354L139.117,207.719z"/>
		<path opacity="0.25" fill="#FFFFFF" d="M126.771,228.771c-1.742,4.433-5.065,24.377-3.641,30.076
			C124.362,247.809,126.771,228.771,126.771,228.771z"/>
		<path opacity="0.25" fill="#FFFFFF" d="M140.543,229.722c1.741,6.016,4.353,15.771,6.016,30.076
			C147.351,251.249,143.708,232.412,140.543,229.722z"/>
		<path opacity="0.1" fill="#221F1F" d="M140.747,190.979c3.324-0.281,6.064-0.518,8.382-1.331c-3.586,0.213-7.5,1.479-10.753,0.101
			c-0.014,0.205-1.118-1.099-1.431-1.698c-0.425,0.207-0.508,0.1-0.478,0.313C136.702,190.014,137.583,191.247,140.747,190.979z"/>
		<g>
			<path opacity="0.25" fill="#FFFFFF" d="M144.712,123.505c0.208,0.105,0.323,0.266,0.381,0.324c0.68,0.02,1.371,0.155,2.049,0.367
				c0.282-0.284,0.544-0.606,0.762-1.001c2.043-3.689,3.499-10.965,2.979-12.677C149.816,114.817,148.383,121.037,144.712,123.505z"
				/>
			<path opacity="0.25" fill="#FFFFFF" d="M139.93,124.816c0.033-0.008,0.066-0.023,0.099-0.032
				c-0.005-0.626,0.313-1.095,0.438-1.225c-2.137-0.926-5.146-3.586-6.627-6.214c-0.307-0.545-0.688-1.277-0.957-2.045
				C133.645,118.589,134.843,121.254,139.93,124.816z"/>
		</g>
		<path opacity="0.1" fill="#221F1F" d="M140.472,126.624c-1.027,1.104-3.638,3.022-3.052,7.924
			c0.747,0.798,2.025-0.534,2.238-1.333C139.871,132.416,142.085,128.129,140.472,126.624z"/>
		<path opacity="0.1" fill="#221F1F" d="M145.887,125.909c1.176,1.446,4.641,4.961,3.841,6.667c-3.41-1.546-4.469-4.436-4.393-5.415
			C145.625,126.022,145.887,125.909,145.887,125.909z"/>
	</g>
</g>
</svg>
